<svg width="250" height="189" viewBox="0 0 250 189" fill="none" xmlns="http://www.w3.org/2000/svg">
<path fill-rule="evenodd" clip-rule="evenodd" d="M192.461 50.7774C192.527 52.054 192.621 52.5614 193.527 53.3849C193.828 53.6591 194.074 53.6429 194.262 53.6306C194.516 53.6137 194.664 53.604 194.703 54.3284C194.727 54.7848 194.438 55.0987 194.148 55.4143C193.976 55.6014 193.803 55.7892 193.695 56.0078C192.286 58.8388 193.18 62.4679 193.888 65.3414L193.888 65.3424C193.912 65.4398 193.936 65.5364 193.959 65.632C194.316 67.0857 194.799 68.5706 195.288 70.0727C196.788 74.6807 198.341 79.4511 196.457 83.9835C196.376 84.1788 196.3 84.4476 196.218 84.7379C196.045 85.3483 195.847 86.0527 195.517 86.3673C194.875 86.0281 194.407 86.1764 194.112 86.8119C193.935 87.0113 193.757 87.2106 193.58 87.4097C192.458 88.4485 191.263 88.8347 189.774 88.2825C186.77 87.1696 186.273 83.6781 186.258 80.9294C186.24 77.8998 186.885 74.727 187.574 71.7757C187.601 71.6591 187.629 71.5409 187.658 71.4218C187.98 70.086 188.339 68.5949 187.466 67.3642C186.921 66.596 186.298 66.5565 185.695 66.5181C185.303 66.4932 184.92 66.4689 184.572 66.2465C184.105 65.9479 184.203 64.7093 184.308 63.3935C184.414 62.0572 184.527 60.6412 184.059 60.0503C182.438 58.0029 181.874 63.0114 181.848 64.0343C181.82 65.1549 181.881 66.4622 182.408 67.478C182.598 67.8434 182.984 68.1883 183.369 68.5321C183.824 68.9393 184.278 69.3449 184.403 69.7818C184.544 70.2718 184.191 71.2716 183.887 72.1326C183.724 72.5943 183.575 73.0161 183.524 73.2982C183.298 74.5431 183.219 75.8148 183.155 77.0765C182.936 81.3389 183.604 85.8246 186.535 89.1322C187.82 90.5828 189.999 92.2299 192.037 91.9657C193.372 91.7925 194.712 91.2124 196 90.6545C196.447 90.4608 196.888 90.2699 197.321 90.0998C198.449 94.4379 200.144 98.6393 201.95 102.736C202.521 104.031 203.079 105.338 203.638 106.646L203.638 106.646C204.615 108.933 205.594 111.224 206.643 113.462C208.887 118.251 212.034 122.581 215.169 126.894C216.888 129.26 218.604 131.62 220.165 134.048C224.419 140.667 226.805 148.262 227.377 156.075C227.432 156.827 227.375 157.693 227.318 158.571C227.234 159.849 227.148 161.155 227.403 162.179C227.476 162.47 227.547 162.732 227.613 162.976C227.914 164.086 228.113 164.82 227.896 166.268C227.819 166.786 227.722 167.293 227.627 167.796C227.359 169.199 227.099 170.568 227.279 172.038C227.328 172.443 227.41 172.892 227.497 173.365V173.366C227.789 174.964 228.128 176.825 227.417 178.092C227.077 177.729 226.737 177.425 226.41 177.133C225.672 176.473 224.998 175.871 224.532 174.779C224.322 174.287 224.202 173.821 224.092 173.392C223.843 172.429 223.642 171.649 222.572 171.163C222.079 170.939 221.638 170.817 221.218 170.7L221.218 170.7C220.513 170.505 219.868 170.326 219.138 169.711C217.722 168.517 216.757 167.058 216.059 165.349C214.869 162.432 214.696 159.27 215.703 156.275C216.51 153.874 218.868 149.378 222.173 150.987C222.074 150.784 221.982 150.577 221.89 150.371C221.526 149.554 221.167 148.749 220.419 148.225C220.026 147.95 219.54 147.764 219.04 147.574H219.04C218.501 147.368 217.945 147.155 217.473 146.818C216.454 146.092 215.301 145.318 214.165 144.787C213.818 144.625 213.486 144.526 213.138 144.423L213.132 144.421L213.064 144.401L213.003 144.383L212.962 144.37C212.925 144.359 212.887 144.348 212.85 144.336C212.418 144.203 211.682 144.25 211.357 144.271C211.27 144.277 211.213 144.28 211.198 144.278C209.246 143.983 207.069 143.042 205.876 141.625C204.979 140.558 204.186 139.562 203.501 138.341C202.706 136.925 202.349 136.851 201.065 136.583C200.912 136.55 200.745 136.516 200.563 136.475C198.083 135.929 196.51 135.556 194.526 133.715C192.385 131.727 190.803 129.264 189.236 126.823L189.106 126.622C188.309 125.38 187.593 125.124 186.46 124.72H186.46C186.254 124.646 186.034 124.568 185.797 124.477C185.387 124.321 184.904 123.915 184.423 123.51H184.423C183.857 123.034 183.292 122.559 182.852 122.498C182.723 122.48 182.323 122.627 181.926 122.774C181.603 122.893 181.283 123.011 181.112 123.039C180.432 123.149 179.842 123.129 179.16 123.058C177.597 122.894 176.216 122.479 175.165 121.255C171.928 117.485 170.941 108.598 175.372 105.39C175.639 105.197 175.94 105.037 176.241 104.876C176.893 104.528 177.55 104.177 177.891 103.483C178.366 102.516 178.267 100.838 178.193 99.5943C178.178 99.3404 178.164 99.1046 178.157 98.8966C178.105 97.4952 178.039 95.97 177.83 94.5886C177.733 93.9536 177.662 93.6866 177.403 93.0509C176.973 91.9952 176.797 91.9521 176.131 91.7881C176.001 91.7561 175.853 91.7197 175.681 91.6705C175.363 91.5796 175.082 91.5152 174.828 91.4571C173.875 91.2388 173.295 91.1065 172.565 89.975C171.827 88.8316 171.482 87.3913 171.415 86.0394C171.391 85.5563 171.46 85.0877 171.527 84.6287C171.635 83.889 171.739 83.1751 171.446 82.4702C171.141 81.7337 170.719 81.0762 170.295 80.4149C169.757 79.5744 169.215 78.7272 168.898 77.7036C168.861 77.5836 168.82 77.4524 168.775 77.3115C168.246 75.64 167.287 72.613 168.405 71.3021C168.643 71.0228 168.962 70.8481 169.29 70.6679C169.711 70.4373 170.148 70.198 170.451 69.7193C170.595 69.4907 170.726 69.2783 170.85 69.0779C171.529 67.9764 171.982 67.243 173.16 66.2531C173.484 65.981 173.803 65.6666 174.128 65.3476C174.834 64.6542 175.564 63.937 176.411 63.5757C177.106 63.2792 177.779 63.4242 178.412 63.5608C178.889 63.6635 179.342 63.7612 179.767 63.663C180.511 63.4903 180.606 62.2447 180.692 61.1193C180.731 60.6145 180.767 60.1341 180.86 59.7853C181.263 58.2666 182.128 56.6833 183.175 55.4981C183.316 55.3388 183.47 55.2311 183.623 55.1253C183.849 54.968 184.07 54.8142 184.233 54.4998C184.434 54.1121 184.482 53.6347 184.53 53.1546C184.571 52.7523 184.612 52.3476 184.743 51.9925C185.086 51.0613 185.92 49.4583 186.851 48.9478C188.381 48.1094 189.31 48.9568 190.197 49.7668C190.888 50.3976 191.554 51.006 192.461 50.7774ZM227.697 126.535C230.706 128.261 230.048 132.933 229.65 135.76C229.636 135.858 229.623 135.953 229.61 136.047C229.468 137.06 229.591 138.084 229.711 139.09C229.798 139.817 229.884 140.535 229.869 141.232C229.843 142.395 229.458 142.687 229.022 143.019C228.755 143.222 228.469 143.44 228.233 143.882C228.058 143.424 227.835 142.936 227.607 142.435C227.131 141.391 226.629 140.291 226.477 139.291L226.119 138.355C226.422 138.233 226.583 138.022 226.602 137.72C226.698 137.178 226.721 136.627 226.743 136.074V136.074C226.751 135.896 226.758 135.718 226.768 135.54C226.932 132.518 227.161 129.515 227.697 126.535ZM167.404 87.2355V87.2352V87.235L167.405 87.2329C167.428 87.1527 167.451 87.0728 167.474 86.9946C167.425 85.759 167.147 83.2048 165.749 82.6154C163.992 81.8744 163.474 83.9384 163.521 85.3178C163.558 86.4178 164.023 88.4316 165.107 89.0433C166.632 89.9035 167.041 88.4883 167.404 87.2355ZM165.257 122.598V122.598C165.289 124.854 165.322 127.084 166.009 129.264C166.818 131.829 168.174 134.3 169.516 136.618C172.125 141.124 172.747 145.375 173.061 150.528C168.155 148.328 165.48 140.811 163.861 136.108C163.632 135.444 163.401 134.78 163.17 134.115L163.17 134.114V134.114C162.535 132.288 161.899 130.458 161.306 128.622C161.193 128.27 161.067 127.904 160.937 127.525V127.525C160.155 125.245 159.232 122.553 160.027 120.321C160.086 120.365 160.144 120.407 160.2 120.449L160.205 120.452C161.862 121.675 162.615 122.231 163.604 120.002C163.995 120.432 164.387 120.861 164.778 121.291L165.244 121.801C165.249 122.066 165.253 122.331 165.257 122.596V122.596V122.597V122.597V122.597V122.597V122.598ZM158.165 97.1646C157.897 98.3897 157.687 99.6163 157.489 100.854C157.549 100.981 157.609 101.109 157.67 101.239H157.67C158.336 102.664 159.06 104.215 160.746 104.599C161.016 104.66 161.269 104.627 161.52 104.595C161.826 104.555 162.127 104.516 162.449 104.648C162.88 104.826 163.193 105.225 163.499 105.618C163.701 105.876 163.9 106.131 164.129 106.318C166.802 108.504 169.792 104.411 168.334 102.112C166.567 104.001 164.58 103.38 163.941 100.813C163.332 98.3679 164.226 95.3179 165.514 93.2531C163.137 92.1787 161.683 92.2502 159.57 93.6954C159.502 93.7415 159.441 93.7827 159.386 93.8201L159.385 93.8207C159.128 93.9939 158.988 94.0882 158.895 94.2165C158.784 94.37 158.74 94.5722 158.643 95.016V95.0163L158.642 95.0176C158.629 95.0778 158.615 95.1424 158.6 95.2118C158.54 95.4791 158.481 95.7463 158.421 96.0136V96.0138V96.0143C158.335 96.3977 158.249 96.781 158.165 97.1646ZM197.122 145.607L197.122 145.608C196.776 145.866 196.429 146.124 196.126 146.43C196.001 146.556 195.8 146.857 195.598 147.16C195.351 147.531 195.101 147.905 194.984 147.969C194.136 148.439 193.394 147.836 192.565 147.079C190.933 145.587 189.914 142.42 189.99 140.23C190.08 137.672 191.886 135.917 194.177 137.741C196.019 139.207 196.552 141.272 197.091 143.36C197.253 143.987 197.415 144.617 197.614 145.233C197.454 145.361 197.288 145.484 197.122 145.607ZM185.798 173.122C187.644 172.885 188.859 173.172 190.674 173.621C191.213 171.382 190.648 168.469 189.164 166.656C188.833 166.251 188.337 165.937 187.872 165.642C187.363 165.319 186.889 165.019 186.705 164.648C186.473 164.18 186.422 163.498 186.369 162.806C186.322 162.181 186.274 161.548 186.092 161.057C185.786 165.114 185.612 169.064 185.798 173.122ZM159.096 169.537C159.678 168.374 160.26 167.212 160.843 166.049C161.221 166.651 162.334 168.222 163.253 167.72C163.674 167.489 163.632 166.489 163.594 165.569C163.569 164.975 163.546 164.415 163.648 164.116C164.884 165.495 165.497 167.12 165.318 168.963C165.254 169.619 165.054 170.539 164.861 171.17C164.787 171.41 164.611 171.724 164.431 172.046C164.092 172.65 163.736 173.286 164.003 173.528C163.785 173.514 163.561 173.509 163.334 173.503H163.333C162.358 173.478 161.34 173.452 160.666 172.847C159.976 172.228 159.479 170.706 159.168 169.757C159.143 169.679 159.119 169.606 159.096 169.537ZM183.298 161.566C183.43 159.909 183.402 158.309 183.346 156.646C181.381 155.32 178.858 155.06 178.784 158.108C178.715 160.963 180.73 163.163 182.552 165.152L182.553 165.152L182.553 165.153L182.555 165.154C182.79 165.411 183.021 165.664 183.245 165.914C183.427 165.135 183.376 164.248 183.325 163.368C183.289 162.751 183.253 162.137 183.298 161.566ZM180.253 129.871C180.209 130.04 180.167 130.227 180.122 130.425C179.816 131.768 179.408 133.564 177.72 132.899C176.192 132.296 175.823 129.866 175.82 128.511C175.817 127.399 176 125.356 177.554 125.289C179.462 125.207 180.144 128.587 180.253 129.871ZM166.53 99.5753C167.02 98.7062 167.602 97.6758 168.151 97.8083C167.894 97.2348 167.636 96.6614 167.378 96.0879C167.121 95.5144 166.863 94.9409 166.605 94.3675C166.531 94.7459 166.449 95.1265 166.366 95.5085C166.002 97.1938 165.632 98.9119 165.841 100.628C166.033 100.457 166.268 100.039 166.53 99.5753ZM205.946 175.444C208.676 172.858 210.496 173.801 213.47 175.341C213.614 175.416 213.761 175.492 213.911 175.57C214.649 175.95 215.359 176.116 216.07 176.282C216.623 176.412 217.176 176.541 217.742 176.771C218.387 177.034 218.792 177.714 219.175 178.357C219.553 178.991 219.909 179.589 220.453 179.717C219.122 179.857 217.796 180.038 216.472 180.219H216.472C212.742 180.729 209.023 181.238 205.229 180.822C205.407 180.096 205.386 179.363 205.365 178.635C205.334 177.544 205.303 176.466 205.946 175.444ZM204.689 166.677C207.984 166.507 208.861 161.43 208.838 158.893C208.91 157.053 208.427 154.682 207.013 153.367C206.119 152.535 204.052 151.227 202.811 151.422C199.443 151.951 198.593 158.101 198.919 160.672C199.217 163.018 202.041 166.814 204.689 166.677Z" fill="#75A342"/>
<path fill-rule="evenodd" clip-rule="evenodd" d="M155.278 52.7356C154.702 52.9947 155.801 54.9306 155.972 55.2857C156.418 56.2128 156.962 58.1285 158.019 57.6011C157.105 55.9794 156.192 54.3574 155.278 52.7356ZM20.0936 165.058C19.3235 164.716 18.2935 167.657 18.1563 168.254C17.7736 169.918 18.0938 171.036 19.4249 172.112C18.8739 169.734 19.5339 167.365 20.0936 165.058ZM197.861 39.144C196.903 37.8997 195.52 35.5894 193.585 36.8125C192.821 37.2958 192.233 38.8447 191.761 39.6014C191.021 40.7894 190.305 41.933 189.742 43.2119C190.698 42.8183 191.262 41.9624 192.118 41.4945C192.702 41.175 193.235 41.1443 193.798 40.9113C195.043 40.3968 196.748 39.8923 197.861 39.144ZM41.713 161.743C42.2312 163.773 42.7105 165.797 43.1114 167.853C43.3825 169.244 44.2937 171.21 43.8182 172.572C45.0499 172.406 46.2816 172.24 47.5133 172.074C46.5996 169.993 46.1188 167.772 45.8474 165.524C45.6813 164.148 45.8943 163.756 44.8584 162.99C44.0563 162.397 42.6442 162.112 41.713 161.743ZM34.9005 84.0451C37.2686 86.4176 39.3398 89.122 41.8564 91.3326C43.1641 92.4813 44.5046 93.5977 45.8466 94.7057C46.9846 95.6451 48.7944 97.7161 50.2755 98.0036C50.4585 97.2469 50.8914 96.0069 50.7754 95.2308C51.2076 94.7834 51.0735 94.4567 50.373 94.2501C49.9444 93.9204 49.5207 93.5852 49.1011 93.2439C47.4549 91.8686 45.8971 90.3747 44.3372 88.9036C42.7865 87.4415 41.352 85.9118 40.0059 84.2598C39.2968 83.3898 38.882 82.5176 37.7189 82.2619C36.3372 81.9582 35.8774 83.0365 34.9005 84.0451ZM82.23 172.138C82.1632 173.427 85.3308 174.217 86.2932 174.294C88.8948 174.503 90.5843 173.362 91.4796 171.11C93.3433 166.423 96.3275 162.293 97.5755 157.365C97.9457 155.902 98.2663 155.237 96.947 154.492C96.4055 154.186 94.9957 153.505 94.4071 153.894C93.8467 154.264 93.3876 155.93 93.0274 156.536C92.4552 157.498 91.8047 158.412 91.1836 159.343C88.2778 163.697 85.3498 167.937 82.23 172.138ZM44.6365 107.591L56.7982 114.551C57.3054 112.798 57.5386 110.971 58.014 109.205C58.3525 107.95 59.2232 106.177 59.1681 105.075C59.086 103.429 57.8128 101.245 57.2578 99.6766C56.566 97.7222 55.8742 95.7673 55.1825 93.8127C54.2457 94.7093 53.1671 95.3356 53.1556 96.5038C53.1492 97.1716 53.5939 97.5882 53.3361 98.3446C53.1551 98.8753 52.3855 99.58 52.0138 99.9743C50.928 101.127 50.9621 101.185 49.821 100.107C48.0929 102.602 46.3646 105.096 44.6365 107.591ZM58.0163 140.225C58.1904 138.548 58.4139 136.94 58.7908 135.295C59.0225 134.284 60.001 132.208 59.6791 131.256C59.4426 130.556 58.0366 129.948 57.4889 129.567C55.9047 128.465 54.3576 127.306 52.7893 126.182C51.4139 125.196 50.0182 124.234 48.6687 123.213C47.4188 122.268 46.4754 121.091 44.9629 120.686C43.6395 120.331 41.9603 120.563 40.5896 120.517C38.7502 120.456 36.8823 120.436 35.0446 120.526C28.8774 120.828 21.9686 120.396 16.0355 122.118C13.2313 122.931 11.4235 123.41 9.85596 126.069C8.04311 129.143 6.49422 132.338 5.17549 135.659C4.98297 136.144 4.54774 136.844 4.56438 137.374C4.59613 138.386 4.95788 138.153 5.9274 138.73C6.97502 139.353 8.00189 140.093 9.00266 140.795C10.7187 141.999 12.8493 143.256 14.6297 144.195C16.7718 145.324 18.9297 146.337 21.1087 147.475C22.4894 148.195 23.9184 148.785 25.2728 149.577C26.743 150.437 28.3892 150.682 29.9742 151.354C34.882 153.434 39.6319 155.356 44.448 157.728C49.149 160.044 53.904 162.002 58.7137 164.045C64.93 166.685 71.0849 169.127 77.5679 170.952C78.0426 171.086 79.0405 171.558 79.5093 171.536C80.5116 171.49 80.7387 170.757 81.3408 169.931C82.5241 168.307 83.6639 166.653 84.7958 164.993C87.2507 161.393 89.6514 157.753 92.2944 154.287C84.8047 152.195 77.8601 148.336 71.2761 144.375C70.9958 145.164 70.7725 146.91 69.8739 147.174C68.7628 147.501 67.9556 145.96 67.4576 145.251C66.9863 146.426 66.1799 150.388 64.6714 150.301C62.5872 150.181 62.9551 146.898 62.6955 145.595C61.5465 147.124 60.215 148.881 58.6535 146.531C57.5714 144.901 57.6914 142.042 58.0163 140.225ZM144.795 121.501C143.829 121.199 142.87 120.93 141.925 120.592C141.677 120.064 141.264 119.904 140.688 120.112C140.216 120.154 139.757 120.096 139.31 119.936C137.337 119.599 135.152 119.16 133.266 118.591C131.587 118.084 130.004 117.636 128.298 117.255C127.285 117.029 122.773 115.751 122.106 116.503C121.901 116.735 122.254 119.539 122.204 120.039C122.116 120.928 122.072 122.392 121.51 123.132C121.294 123.416 120.472 123.73 120.175 123.951C119.21 124.67 118.319 125.562 117.359 126.307C115.263 127.933 113.222 129.62 111.083 131.192C109.572 132.304 107.842 132.854 106.164 133.661C107.358 133.875 109.695 132.725 110.901 132.368C112.462 131.906 113.994 131.392 115.591 130.969C118.866 130.101 122.221 129.121 125.549 128.197C127.592 127.63 129.751 127.039 131.733 126.287C132.611 125.954 133.301 125.179 133.882 125.968C134.345 126.597 133.785 127.426 133.429 127.892C131.351 130.614 125.709 131.276 122.689 132.405C119.281 133.679 115.919 135.02 112.409 135.915C108.311 136.96 103.862 137.76 100.044 139.596C96.8751 141.118 93.2857 141.708 89.9171 142.602C86.7535 143.441 83.0019 143.61 80.0119 145.034C81.3035 146.055 83.2144 146.588 84.7197 147.274C86.5625 148.114 88.4245 148.881 90.2471 149.771C91.0228 150.15 91.8346 150.713 92.6196 151.028C93.616 151.428 93.4883 151.217 94.5174 151.136C96.1193 151.01 98.2806 150.722 99.5819 151.889C101.152 153.297 100.157 154.84 100.387 156.563C100.546 157.744 100.626 157.554 101.936 157.735C103.142 157.9 104.347 158.094 105.537 158.352C107.006 158.671 108.509 159.205 109.94 159.666C112.158 160.381 112.399 161.222 114.711 160.299C121.297 157.672 128.108 155.513 134.736 153.027C137.788 151.882 140.854 149.673 143.728 148.014C147.414 145.885 150.748 143.583 153.244 140.038C154.381 138.423 155.568 135.694 155.329 133.689C155.115 131.895 153.789 129.902 152.935 128.359C151.843 126.39 150.882 125.626 149.213 124.318C148.052 123.409 146.259 121.489 144.795 121.501ZM71.4535 136.742C71.5557 137.732 70.9776 141.813 71.5503 142.441C72.5296 143.514 74.9315 142.261 75.8608 141.942C78.8798 140.903 82.3887 141.13 85.4629 140.308C88.4453 139.51 91.3623 138.476 94.3613 137.663C95.9701 137.227 97.4969 136.543 99.0794 136.023C100.841 135.445 102.807 135.128 104.441 134.258C104.239 133.755 97.1703 134.965 96.3669 135.031C93.5766 135.257 90.9496 134.827 88.1995 134.32C82.1335 133.204 76.4179 130.556 70.4302 128.838C70.7108 131.602 78.4819 132.152 77.5562 135.36C77.2979 136.254 73.8214 137.715 72.6717 137.154C70.3358 136.014 73.1932 134.41 74.3575 134.01C72.5851 132.993 70.889 131.889 69.2713 130.636C67.5393 129.294 66.7941 127.412 65.8658 125.47C63.9254 121.409 59.3335 119.046 55.7667 116.518C51.9099 113.785 47.8031 111.461 43.9485 108.733C43.2606 108.247 42.9393 108.47 42.6977 107.581C42.4391 106.629 43.3892 105.419 43.8502 104.694C45.0622 102.785 46.4739 100.978 48.075 99.3799C46.0102 97.9733 43.7798 96.8123 41.8436 95.2203C39.881 93.6065 38.2568 91.6365 36.5254 89.789C33.7594 95.813 29.8828 101.4 26.8385 107.308C25.636 109.641 25.0004 113.17 26.8291 115.431C28.7535 117.811 32.3421 116.885 35.0587 117.011C37.9258 117.144 40.5412 117.469 43.3692 118.283C44.6485 118.652 45.8131 118.543 47.0427 119.134C48.4849 119.827 49.9032 120.718 51.2752 121.54C53.9733 123.157 56.4941 125.18 59.0419 127.025C60.087 127.781 65.7539 132.265 61.2716 131.573C61.2716 135.77 60.5371 140.067 60.1515 144.243C61.2145 142.973 61.9725 141.682 62.6156 140.155C62.9981 139.247 63.003 136.93 64.2777 137.479C66.1952 138.305 64.7017 144.376 64.7017 146.019C65.1768 145.1 65.5096 144.11 65.8517 143.136C66.1108 142.399 66.4346 140.307 66.9753 139.812C68.7853 138.156 69.0391 142.672 69.0391 143.615C69.6253 141.95 69.7331 140.173 69.792 138.414C69.815 137.72 69.6438 136.641 69.8189 135.969C70.1102 134.85 70.0757 134.923 71.2464 134.45C71.3155 135.214 71.3847 135.978 71.4535 136.742ZM127.369 172.156C127.512 173.576 128.061 174.604 127.128 175.881C128.931 175.752 130.706 175.593 132.512 175.639C133.962 175.676 136.13 176.008 137.483 175.386C138.034 175.133 138.222 175.569 138.505 175.085C138.774 174.625 138.142 173.1 138.066 172.721C137.702 170.905 137.524 169.042 137.193 167.214C136.965 165.958 136.297 163.488 137.137 162.301C138.373 160.554 138.917 163.015 139.238 164.107C140.299 167.706 140.237 171.124 140.237 174.822C141.834 174.822 143.932 174.124 145.472 173.703C147.596 173.122 149.864 172.525 151.922 171.766C153.864 171.051 155.573 170.008 156.8 168.328C157.718 167.071 159.754 163.971 159.248 162.581C158.628 160.878 155.672 159.707 154.094 159.519C152.046 159.276 149.946 159.688 147.851 159.861C145.607 160.046 143.431 160.546 141.211 160.787C139.055 161.02 136.162 161.74 134.068 161.201C134.013 162.063 134.734 163.222 134.985 164.1C135.314 165.251 135.607 166.412 135.874 167.579C136.16 168.828 137.93 173.317 136.321 174.215C134.431 175.269 133.529 170.757 133.294 169.657C132.733 167.035 132.25 164.415 132.838 161.778C130.426 161.343 127.517 161.99 125.03 162.161C125.956 165.428 126.554 168.85 127.369 172.156ZM23.484 173.576C24.3227 173.95 25.4753 173.749 26.3869 173.821C27.8117 173.933 29.251 174.191 30.6852 174.145C32.8736 174.075 35.1677 173.798 37.358 173.548C36.1086 171.293 35.3505 169.157 35.1946 166.573C35.1386 165.644 34.6462 159.886 36.358 160.132C37.1839 160.251 37.0085 165.168 37.1688 166.074C37.4017 167.388 37.7023 168.733 38.0681 170.019C38.3336 170.952 39.2368 172.35 39.0054 173.359C40.1096 173.18 41.2141 173 42.3185 172.821C41.4598 171.108 40.8326 169.572 40.511 167.661C40.3556 166.738 40.4547 165.59 40.1534 164.714C39.9634 164.162 39.5302 163.643 39.4724 163.18C39.4056 162.645 39.9903 161.333 39.774 160.858C39.5615 160.392 38.082 159.96 37.5635 159.703C36.1347 158.994 35.2973 158.815 33.6959 159.222C30.6071 160.008 25.7405 160.566 23.4369 162.685C21.1547 164.784 20.3242 171.866 23.484 173.576ZM158.383 71.2358C159.238 71.1392 160.084 71.0795 160.944 71.0351C159.688 69.2666 158.548 67.418 157.506 65.5152C156.996 64.583 156.514 63.6359 156.053 62.6786C155.523 61.5801 155.538 60.8628 154.387 60.6445C152.794 60.3424 150.663 60.9461 149.024 60.8775C147.758 60.8242 144.915 59.6316 143.895 60.0639C144.825 61.9719 144.078 64.9404 144.115 66.9942C144.151 69.0367 143.898 71.011 143.538 73.0251C145.711 73.0251 148.431 72.2743 150.624 71.9389C153.178 71.5484 155.781 71.5281 158.383 71.2358ZM123.891 176.086C124.728 175.979 125.523 175.945 126.368 175.945C124.465 172.857 123.028 169.403 123.011 165.723C123.009 165.242 123.588 162.475 123.396 162.245C123.023 161.798 121.476 162.151 121.052 162.193C119.319 162.367 117.392 162.354 115.76 162.979C114.633 163.41 114.621 163.15 114.173 164.476C113.908 165.261 113.718 166.157 113.713 166.982C113.702 168.649 114.233 170.598 114.92 172.099C115.574 173.528 116.607 175.061 118.028 175.828C119.665 176.713 121.971 176.187 123.891 176.086ZM141.198 61.3464C140.868 60.1159 141.011 60.3937 139.916 60.2409C139.686 60.2089 137.179 60.2609 137.035 60.408C136.869 60.5776 136.932 63.0829 136.911 63.3697C136.836 64.3523 136.727 65.3325 136.62 66.3121C136.186 70.289 135.362 74.1387 134.745 78.0828C136.27 77.1352 138.475 78.4272 139.779 77.4015C140.809 76.591 140.654 73.9973 140.731 72.8529C140.988 69.0226 141.076 65.1828 141.198 61.3464ZM196.291 56.7022C196.153 56.9229 196.016 57.1435 195.879 57.3641C196.412 57.7059 199.53 54.2285 200.224 53.6063C201.148 52.7779 202.61 51.6717 203.026 50.4604C203.51 49.0529 203.034 46.8308 202.917 45.3753C202.833 44.3337 203.011 42.8931 202.163 42.1654C201.382 41.4958 199.458 41.5138 198.533 41.657C195.758 42.087 194.089 44.3711 192.688 46.5476C194.111 46.3726 199.125 44.0813 199.708 45.3205C200.554 47.1208 195.287 48.7306 194.767 50.3103C195.845 50.6913 198.223 49.2133 197.554 51.6725C197.439 52.0166 197.24 52.3015 196.956 52.5273C196.464 52.7018 196.348 53.0306 196.607 53.5138C196.386 54.477 196.431 55.6957 196.291 56.7022ZM228.233 143.882C228.247 144.466 228.301 145.024 228.778 145.437C229.835 142.085 230.165 138.732 230.603 135.247C231.042 131.761 231.508 128.189 231.577 124.706C231.655 120.803 231.287 116.557 230.656 112.7C230.163 109.685 229.781 105.975 227.985 103.409C229.005 110.059 228.688 116.364 228 123.037C227.635 126.58 227.119 130.096 226.883 133.655C226.821 134.594 226.8 135.546 226.719 136.484C226.671 137.036 226.124 138.084 226.119 138.355C226.092 139.861 227.704 142.499 228.233 143.882ZM173.968 138.703C174.817 140.657 175.781 142.581 176.29 144.658C176.827 146.851 176.595 148.894 176.681 151.117C176.824 154.804 176.529 158.47 176.58 162.163C176.624 165.311 176.504 168.379 176.535 171.493C176.555 173.463 176.447 175.426 176.454 177.395C176.454 177.389 176.532 179.162 176.397 179.252C175.789 179.656 175.126 179.083 174.939 178.53L173.139 180.57C174.083 180.332 175.243 179.836 176.214 179.793C176.585 179.656 176.955 179.652 177.324 179.781C177.69 180.003 177.961 180.311 178.137 180.707C180.68 181.249 182.205 178.984 182.662 176.959C183.653 172.565 183.296 168.227 183.224 163.792C183.068 154.155 184.598 144.576 184.453 134.938C184.425 133.073 184.354 131.23 184.634 129.369C185.154 125.911 185.921 129.076 186.045 130.708C186.415 135.612 187.059 140.672 186.705 145.607C186.386 150.053 186.415 154.54 186.194 158.999C185.959 163.739 185.58 168.378 185.798 173.122C187.07 172.959 191.16 172.716 191.586 174.504C191.958 176.064 190.463 175.487 189.686 175.421C188.427 175.314 187.197 175.61 185.821 175.363C185.922 177.46 186.211 180.273 184.339 181.69C183.417 182.386 181.892 183.015 180.816 183.426C179.761 183.829 177.974 184.721 176.875 184.672C176.098 184.637 175.798 184.218 174.945 184.285C173.68 184.385 172.584 185.232 171.242 184.532C168.697 183.205 169.948 179.343 171.555 177.796C171.969 177.397 172.435 176.96 172.991 176.766C173.255 176.673 174.361 176.785 174.488 176.647C174.959 176.135 174.371 173.145 174.308 172.577C173.978 169.6 173.619 166.56 173.484 163.57C173.356 160.758 173.215 157.941 173.118 155.129C173.097 154.516 173.368 153.257 173.112 152.722C172.686 151.832 170.816 151.266 170.004 150.851C170.727 157.94 171.789 165.558 169.172 172.31C168.653 173.65 168.07 175.564 166.752 176.31C165.51 177.013 162.585 176.914 161.097 176.997C159.497 177.087 157.931 176.713 157.049 175.209C156.356 174.026 156.772 172.606 158.196 172.09C159.049 171.781 159.215 171.98 159.962 172.347C160.124 172.61 160.238 172.894 160.303 173.196H160.878C161.656 173.544 164.766 173.933 165.622 173.378C166.613 172.736 166.829 171 167.251 169.969C168.036 168.052 168.244 166.497 168.529 164.449C168.975 161.243 168.523 157.525 168.532 154.185C168.534 153.244 168.538 152.303 168.54 151.363C168.541 149.942 168.665 149.95 167.855 148.928C166.634 147.386 165.243 145.811 163.936 144.333C164.644 148.65 164.354 153.196 164.073 157.497C163.915 159.914 163.589 162.375 163.439 164.759C163.394 165.476 163.908 167.452 163.077 167.768C162.233 168.09 161.183 166.591 160.842 166.049C158.983 169.764 156.763 173.346 152.926 175.268C150.953 176.256 148.899 176.701 146.746 177.089C144.751 177.448 142.908 178.103 140.942 178.412C136.872 179.051 133.123 179.142 129.027 179.002C125.163 178.87 121.463 179.585 117.611 178.685C116.108 178.335 114.589 177.69 113.561 176.538C113.001 175.91 112.753 174.92 112.187 174.341C112.06 173.591 111.619 173.36 110.865 173.647C110.391 173.668 109.919 173.653 109.449 173.6C105.586 173.397 101.293 173.623 97.5492 172.519C96.1283 172.1 94.542 171.409 95.2509 169.629C95.8705 168.074 97.5801 168.546 98.9821 168.682C103.055 169.077 107.063 169.797 111.194 170.16C111.061 167.999 111.176 165.795 112.022 163.774C109.156 163.414 106.185 162.871 103.458 161.956C102.616 161.673 101.778 161.379 100.943 161.077C99.5658 160.578 99.852 160.449 99.0545 161.319C98.0525 162.412 97.4391 164.691 96.713 166.011C95.8961 167.497 95.1122 168.966 94.4237 170.517C93.7722 171.984 93.2863 173.95 92.2934 175.215C90.1096 177.997 85.0659 178.239 82.0976 177.146C80.6437 176.61 80.1189 176.526 79.2377 175.222C78.2722 173.793 78.0324 173.709 76.2538 173.516C73.0421 173.165 70.0109 172.358 67.0022 171.244C63.8235 170.067 60.5596 169.15 57.3901 167.879C54.4231 166.689 51.5555 165.493 48.4856 164.564C48.1213 166.881 49.6308 169.495 49.6308 171.884C51.417 171.705 53.0827 171.548 54.8533 171.264C55.4846 171.162 59.4623 170.269 59.8504 170.796C61.4682 172.994 54.1072 174.027 52.9567 174.318C49.2698 175.249 45.5102 176.114 41.8001 176.834C38.0131 177.569 34.3214 178.3 30.477 178.432C23.9719 178.655 14.9994 178.279 15.3099 169.725C15.4318 166.373 16.8115 162.736 19.4515 160.55C21.0941 159.19 23.1425 158.442 25.1506 157.826C25.8926 157.599 29.8012 157.067 29.9199 156.775C28.8186 155.985 26.9361 155.779 25.6294 155.17C24.3836 154.589 23.069 154.373 21.7938 153.788C19.2456 152.618 16.7846 151.189 14.4285 149.743C12.5546 148.593 10.6601 147.324 8.93507 145.957C7.56437 144.871 6.25075 143.826 5.15501 142.585C4.58153 141.935 3.56643 141.36 3.10714 140.801C1.49425 138.836 3.19521 134.927 3.8821 132.64C4.88542 129.297 6.22438 125.739 8.19903 122.843C10.0149 120.18 12.0395 118.386 15.2969 117.762C18.3033 117.186 21.3263 117.003 24.401 116.842C23.8844 114.875 23.157 113.486 23.3416 111.329C23.5157 109.294 24.5423 107.272 25.348 105.418C26.846 101.973 28.2592 98.6009 30.3078 95.4289C31.4338 93.6856 32.6985 92.0308 33.9276 90.3604C34.1258 90.0911 35.3577 88.8591 35.3106 88.5121C35.2637 88.1672 34.0267 87.1171 33.8372 86.8765C32.5651 85.2601 31.6857 83.5198 33.1795 81.7899C33.9583 80.8879 36.2481 79.0665 37.3503 80.2124C38.542 77.8022 40.6265 76.159 42.2494 74.1085C44.2727 71.5517 46.2046 68.956 48.0986 66.278C49.9844 63.6115 51.5248 60.747 54.0245 58.5982C56.8102 56.2036 59.4326 56.4106 62.854 57.4343C63.0493 56.1134 63.321 56.2892 64.5975 55.8482C65.5637 55.5143 66.5027 55.1182 67.4528 54.7412C68.4625 54.3402 69.4845 54.1127 70.5168 53.7975C71.8918 53.3778 72.0984 53.5149 72.3219 51.7276C72.5923 49.568 71.6688 47.2846 71.0734 45.2503C70.7794 44.2466 70.5751 42.9971 69.9139 42.3219C69.3156 41.7113 68.2549 41.4333 67.6005 40.7581C61.9625 34.9412 61.8737 22.521 67.8793 17.1148C69.0465 16.064 70.0091 14.6503 71.462 13.9408C73.0572 13.1615 75.1614 12.5314 76.9184 12.1642C80.54 11.4078 84.6017 11.6479 87.4645 14.196C88.8764 15.4526 89.7374 17.45 90.2187 19.2342C90.6785 20.9385 90.5799 23.8191 88.837 21.1852C87.7379 19.524 86.783 17.8298 84.9225 17.008C83.2599 16.2739 81.2297 15.8774 79.4184 16.0332C75.1496 16.4002 71.6903 17.6547 68.7354 20.817C65.4682 24.3134 65.302 29.8957 66.0063 34.3418C66.6269 33.0268 67.0473 30.9445 68.7871 30.6934C70.2372 30.4841 72.5232 32.3372 71.7449 33.9326C68.2137 33.0316 67.1809 38.3763 70.2344 38.6982C71.1589 38.7955 72.3296 37.1484 73.1809 37.532C74.7728 38.249 72.6394 40.7197 72.2188 41.5332C71.9953 41.6708 71.7718 41.8084 71.5483 41.9463C71.7684 42.4583 71.9907 42.9695 72.2152 43.4796C72.4873 44.1302 72.7464 44.7824 72.9855 45.446C73.5675 47.0611 74.1709 48.7265 74.5216 50.4089C74.878 52.1196 75.0631 54.1173 74.2206 55.7244C73.2945 57.491 72.4223 57.2737 71.7108 55.5932C69.8486 56.7681 67.9761 58.0209 65.7869 58.4844C68.0826 62.3393 71.0544 65.6533 75.5229 66.8658C79.3101 67.8936 84.0774 67.8559 87.691 66.1558C91.4409 64.3916 93.5044 60.2681 93.0579 56.1657C92.9132 54.8371 92.1406 50.2221 93.9785 53.5605C94.9865 55.3913 95.0604 58.3612 94.8305 60.3688C93.7315 69.9722 84.0052 73.565 75.6184 71.2532C71.3161 70.0671 68.2157 66.8922 65.9075 63.1549C65.3691 62.2835 64.8765 61.384 64.3955 60.4798C64.2032 60.1185 64.034 59.6139 63.7774 59.297C62.7721 58.0549 63.7598 58.7471 62.6924 58.5915C61.0406 58.3512 58.4413 59.6173 57.2147 60.6204C53.8868 63.342 52.0435 67.6955 49.4892 71.1256C46.7698 74.777 43.3162 78.027 39.8518 80.9404C43.7706 84.958 47.6892 88.9751 51.608 92.9925C52.4175 92.0957 53.9564 90.0457 54.1717 88.8465C54.298 88.1436 53.7314 85.8303 55.4738 86.8599C56.6502 87.5553 57.0965 90.531 57.4633 91.7485C58.0302 93.6288 58.9846 95.3994 59.6016 97.2602C60.746 100.713 62.1558 104.135 63.3281 107.612C63.8048 109.026 65.164 110.781 63.8581 111.978C61.8732 113.797 61.2831 110.216 60.7575 108.848C60.0255 109.866 60.1205 111.518 59.7431 112.706C59.5127 113.431 58.811 114.561 58.8343 115.276C58.874 116.498 59.9828 116.862 60.982 117.545C62.8409 118.816 64.7485 120.057 66.4513 121.537C67.1617 122.155 67.8153 122.78 68.3337 123.574C68.7864 124.268 68.9226 125.831 69.4228 126.314C70.0772 126.945 72.496 126.505 73.7733 126.642C75.9062 126.872 78.0677 127.631 80.1383 128.177C83.8024 129.142 87.571 130.531 91.4084 131.047C95.1769 131.553 98.7133 131.302 102.469 130.628C104.521 130.259 106.724 129.819 108.597 128.831C110.753 127.694 112.665 125.875 114.68 124.501C115.581 123.886 116.503 123.304 117.425 122.721C118.657 121.942 118.335 122.111 118.415 120.873C118.508 119.441 119.106 116.705 118.15 115.43C117.75 114.898 116.525 114.509 115.948 114.121C115.11 113.558 114.358 112.904 113.459 112.45C112.478 111.955 112.45 112.347 111.994 111.133C111.581 110.031 111.308 108.876 110.928 107.763C109.191 102.668 108.742 97.4934 108.022 92.1736C107.687 89.7026 106.867 86.3402 107.796 83.9331C109.089 80.5853 110.17 85.2673 110.443 86.4673C111.676 84.3523 112.385 82 113.669 79.9119C114.417 78.6945 114.783 78.0723 115.205 76.7383C115.375 76.1982 115.444 75.7495 115.805 75.3008C116.569 74.3517 116.681 74.8926 117.475 74.8693C119.973 74.796 122.428 74.8603 124.929 74.9761C126.31 75.0402 127.692 75.074 129.084 75.0689C129.762 75.0663 130.448 75.0333 131.125 75.0722C131.49 75.0684 131.854 75.0955 132.215 75.154C132.961 75.5025 133.246 75.2021 133.069 74.2528C133.719 72.8929 133.676 70.723 133.906 69.2394C134.137 67.746 134.352 66.2501 134.545 64.7511C134.648 63.9498 135.516 60.9264 135.056 60.2681C134.599 59.6155 132.221 59.7618 131.517 59.6447C126.838 58.8662 122.486 56.9365 118.109 55.3554C115.955 54.5772 113.91 53.5264 111.843 52.5716C110.767 52.0745 109.751 51.0508 108.617 50.7321C107.186 50.3298 105.286 50.9729 103.86 51.2151C101.143 51.6766 98.5212 52.0807 95.764 52.2308C94.7898 52.2839 92.9368 52.5573 92.0579 51.8872C90.2924 50.5414 92.3026 49.7545 93.4565 49.5846C98.5607 48.8333 103.649 48.4015 108.792 48.0879C109.033 48.0733 109.917 47.8937 110.211 47.9864C110.88 48.1981 110.61 48.4436 111.012 48.6619C111.755 49.0662 112.604 49.364 113.547 49.6148C116.241 50.3308 118.953 51.5321 121.655 52.476C126.518 54.1744 132.328 56.8824 137.191 56.4063C138.391 56.2889 139.378 56.1388 140.633 56.2605C142.102 56.4032 142.96 57.1576 144.089 57.3769C145.602 57.6706 147.765 57.45 149.357 57.5063C150.876 57.5601 152.395 57.6306 153.914 57.6306C152.58 54.9462 151.768 52.4258 151.018 49.5428C150.609 47.9705 149.994 46.5425 150.26 44.8867C150.386 44.1051 150.698 43.3707 151.039 42.6648C151.552 41.5991 151.698 41.822 151.88 40.6418C152.131 39.0174 151.772 37.3047 151.969 35.6755C152.171 34.0036 153.433 32.5133 153.574 30.9148C153.649 30.0644 153.174 29.3702 153.316 28.4529C153.443 27.6324 153.929 26.7722 154.365 26.0813C155.38 24.4715 156.616 23.5588 158.332 22.9031C159.711 22.376 161.472 21.8925 162.866 22.746C164.287 23.6167 164.185 25.3692 164.866 26.6479C166.331 29.3974 169.711 31.8545 172.405 33.2587C174.88 34.5486 177.547 35.3634 180.201 36.2047C181.816 36.7167 183.477 37.0818 185.064 37.6668C186.206 38.0881 188.07 39.1097 189.233 38.4891C190.247 37.9482 191.43 36.2974 192.434 35.531C193.608 34.6344 195.174 33.7594 196.653 34.5404C198.131 35.3212 198.01 38.1993 199.16 38.7405C199.56 38.929 200.75 38.3766 201.297 38.4637C202.179 38.6041 202.786 39.1507 203.315 39.8236C205.291 42.3381 205.903 46.3265 205.989 49.4263C206.032 50.9745 205.995 52.9001 205.05 54.2146C203.948 55.748 201.863 55.7859 200.448 56.865C199.317 57.728 198.515 59.1389 197.367 60.0585C196.66 60.6253 196.387 60.19 196.094 61.0732C195.903 61.6477 196.288 62.7685 196.402 63.3243C197.105 66.7533 198.422 69.9161 199.672 73.1827C200.261 74.7219 200.761 76.2614 201.029 77.8927C201.206 78.963 201.002 79.8988 201.088 80.9286C201.148 81.6617 201.46 82.2949 201.391 83.0467C201.246 84.6388 200.382 86.045 199.833 87.4454C199.206 89.0418 200.067 91.8064 200.697 93.4573C202.209 97.4127 204.335 101.409 206.223 105.209C208.078 108.942 209.458 112.918 211.62 116.504C213.719 119.987 216.188 123.397 218.577 126.691C219.905 128.524 221.315 130.267 222.519 132.189C222.782 132.609 224.579 136.094 225.045 135.973C224.473 129.891 225.051 123.566 225.307 117.488C225.626 109.88 224.659 102.989 222.52 95.7261C222.02 94.0282 221.574 92.2909 221.222 90.5559C220.976 89.3411 220.281 88.3427 221.987 88.8739C224.814 89.7531 227.301 95.0932 228.738 97.4175C231.956 102.624 234.644 109.566 235.004 115.672C235.359 121.666 235.053 127.401 234.305 133.306C233.935 136.219 233.339 139.467 232.427 142.253C231.958 143.686 231.395 145.17 230.77 146.543C230.506 147.123 229.927 147.778 229.827 148.415C229.669 149.425 230.409 150.788 230.594 151.786C231.199 155.051 231.338 158.434 231.131 161.748C231.021 163.525 230.776 165.114 230.196 166.785C229.458 168.914 229.801 170.541 230.109 172.735C230.437 175.084 230.752 180.423 228.312 181.757C228.14 181.74 227.967 181.722 227.795 181.704C227.359 181.201 226.971 181.231 226.634 181.794C226.002 182 225.386 182.53 224.721 182.759C223.179 183.289 221.515 183.321 219.906 183.554C216.757 184.01 213.619 184.815 210.525 184.913C206.862 185.028 203.041 184.884 199.459 184.242C198.719 184.109 197.853 183.757 197.113 183.69C196.108 183.598 195.403 184.267 194.365 184.11C192.758 183.866 191.742 182.163 191.637 180.768C191.302 176.321 193.767 174.282 197.795 173.492C195.192 169.762 192.195 166.703 191.503 161.913C190.821 157.2 192.299 151.745 194.985 147.97C197.562 144.345 201.961 141.922 206.496 142.842C208.602 143.268 218.533 146.203 216.613 149.532C216.188 148.009 213.569 148.304 212.304 148.084C210.206 147.719 208.107 147.169 205.978 147.282C201.79 147.505 197.742 149.985 195.715 153.738C193.377 158.065 194.443 162.383 197.258 166.078C199.832 169.456 202.485 173.005 205.945 175.444C205.276 176.509 205.518 176.843 204.189 176.652C203.277 176.521 202.423 175.809 201.501 175.632C199.589 175.264 196.579 176.833 195.398 178.401C194.7 179.327 194.726 179.785 196.013 180.356C196.963 180.777 198.458 180.559 199.479 180.651C202.016 180.877 204.603 180.953 207.149 180.944C211.557 180.928 215.655 180.22 220.017 179.762C221.95 179.559 223.972 179.793 225.863 179.081C228.425 178.117 227.798 175.285 227.466 172.99C227.137 170.718 227.471 168.955 227.828 166.704C227.983 165.727 228.272 164.598 228.067 163.614C227.825 162.445 227.389 161.928 227.445 160.624C227.642 155.984 227.061 151.098 225.832 146.62C223.163 136.894 216.647 129.218 211.213 120.951C209.678 118.616 208.064 116.404 206.843 113.875C205.685 111.48 204.888 108.946 203.738 106.544C201.205 101.249 198.802 95.7948 197.321 90.0995C195.643 90.7604 193.835 91.7326 192.037 91.9657C189.999 92.2299 187.82 90.5828 186.535 89.1322C183.604 85.8246 182.936 81.3389 183.155 77.0766C183.219 75.8148 183.298 74.5431 183.524 73.2983C183.67 72.4903 184.62 70.5347 184.404 69.7819C184.172 68.9762 182.823 68.2759 182.408 67.478C181.881 66.4622 181.82 65.1549 181.848 64.0344C181.874 63.0114 182.438 58.0029 184.059 60.05C184.987 61.2229 183.63 65.6446 184.572 66.2465C185.42 66.7879 186.587 66.1263 187.466 67.3642C188.415 68.7021 187.907 70.351 187.574 71.7757C186.886 74.722 186.24 77.9034 186.258 80.9294C186.273 83.6848 186.765 87.1681 189.773 88.2825C191.293 88.8455 192.447 88.4583 193.58 87.4098C193.84 87.1105 194.105 86.8161 194.375 86.5262C194.623 86.0996 195.004 86.0466 195.517 86.3674C195.896 86.0655 196.459 83.9797 196.649 83.5136C198.979 77.7994 195.306 71.2386 193.959 65.632C193.135 62.2027 192.417 58.7629 194.085 55.4533C194.354 54.9175 195.098 54.4519 194.652 53.6832C194.534 53.481 193.412 53.3862 193.146 53.1512C192.28 52.3864 192.461 50.9604 192.461 49.9393C190.459 50.5573 189.882 48.9981 190.142 47.087C188.648 47.324 187.611 47.7812 187.058 46.0515C186.568 44.5177 187.308 42.9536 187.799 41.5243C180.889 40.783 173.425 39.8331 167.918 35.0603C166.56 33.8834 165.431 32.4021 164.489 30.8674C164.319 30.5899 163.519 28.6363 163.253 28.5343C162.464 28.2312 161.803 29.7758 161.102 30.1584C160.478 30.4982 159.593 30.6855 158.9 30.8925C158.249 31.0875 155.952 31.1265 155.545 31.465C154.526 32.3116 154.607 37.2061 154.599 38.342C154.571 42.2543 155.444 46.153 157.057 49.715C158.577 53.0698 160.902 57.6831 163.942 59.8786C164.71 60.4336 165.402 60.7214 166.375 60.6755C167.07 60.643 167.76 60.1556 168.484 60.409C170.316 61.0507 169.661 62.3255 168.252 62.9282C164.226 64.6516 160.833 60.8628 158.505 58.2159C157.823 61.3564 160.984 65.0726 162.657 67.6351C163.723 69.2681 164.776 70.9027 165.79 72.569C166.527 73.7792 167.974 76.0142 165.403 75.0794C164.163 81.5936 160.76 87.2906 159.022 93.6211C157.237 100.119 155.682 107.539 155.682 114.307C157.041 113.36 157.726 109.046 159.553 112.348C159.751 112.705 159.689 113.296 159.95 113.608C160.31 114.04 160.744 113.92 161.296 114.228C162.171 114.716 162.736 115.688 161.954 116.531C162.962 116.296 164.018 116.416 164.235 117.609C164.357 118.279 163.377 121.382 162.646 121.635C160.416 122.408 157.945 117.954 157.341 116.537C155.949 117.936 154.344 119.012 153.061 116.749C152.104 115.063 152.659 112.512 152.794 110.677C153.066 106.979 153.421 103.372 153.954 99.7104C154.954 92.8436 157.49 86.7366 160.606 80.5558C161.464 78.8546 162.415 77.1132 163.181 75.3725C164.337 72.7463 162.529 73.3659 160.761 73.7472C157.298 74.4947 153.672 75.0745 150.173 75.3392C148.347 75.4773 146.008 75.5596 144.253 76.088C143.019 76.4595 143.231 76.203 142.735 77.5257C142.513 78.1177 142.263 78.7472 141.872 79.2541C139.878 81.8401 134.714 81.4073 131.862 81.2146C132.035 80.124 132.206 79.033 132.385 77.9434C130.189 78.4597 127.582 78.8192 125.32 78.7929C124.103 78.779 122.808 78.5932 121.594 78.492C120.699 78.4175 119.001 77.7822 118.159 78.0293C117.182 78.316 115.704 81.8514 115.146 82.9914C114.097 85.1323 112.223 87.5107 111.561 89.7649C110.974 91.7633 112.171 95.2113 112.548 97.2005C113.091 100.076 113.586 102.957 114.497 105.745C115.158 107.767 115.919 110.553 117.947 111.562C119.967 112.567 121.42 113.132 123.606 112.927C127.457 112.567 131.554 113.159 135.356 113.908C139.271 114.68 142.856 115.027 146.574 116.402C155.006 119.521 160.375 129.13 157.196 137.932C155.367 142.995 152.355 146.758 147.936 149.89C145.685 151.486 143.024 152.781 140.556 154.011C139.422 154.575 138.308 155.261 137.153 155.762C136.309 156.129 134.858 156.973 133.941 157.066C134.959 157.55 135.86 157.096 136.919 156.946C138.417 156.732 139.948 156.687 141.451 156.501C143.792 156.211 146.099 155.992 148.44 155.701C150.439 155.453 152.694 155.365 154.681 155.651C155.64 155.789 157.084 156.061 157.939 156.524C158.611 156.888 159.227 157.726 159.95 158.142C160.745 154.874 160.373 150.847 160.41 147.489C160.441 144.749 160.563 142.068 160.821 139.34C161.109 136.289 159.244 132.819 158.556 129.831C157.911 127.034 156.195 123.49 156.826 120.57C157.623 116.89 159.709 123.501 159.996 124.446C160.894 127.404 161.936 130.291 162.931 133.213C164.114 136.689 165.307 140.058 167.031 143.316C168.465 146.026 170.114 149.206 173.062 150.529C172.818 146.542 172.548 142.851 170.892 139.175C169.322 135.69 166.928 132.59 165.881 128.856C165.361 127 165.285 125.102 165.259 123.185C165.241 121.895 165.3 120.161 166.682 121.552C167.778 122.655 167.991 126.172 168.471 127.656C168.702 128.371 169.022 129.027 169.277 129.722C169.392 130.035 170.166 131.559 170.166 131.764C170.964 134.174 172.729 136.485 173.968 138.703Z" fill="#36392E"/>
<path fill-rule="evenodd" clip-rule="evenodd" d="M89.34 50.8451C89.4161 51.7786 89.957 54.198 89.2642 54.9367C88.3459 55.9169 87.9107 54.6562 87.5136 53.6622C86.6836 51.5851 86.2712 47.5629 87.9112 45.832C89.6234 44.0244 93.0064 43.9757 94.8336 42.1756C95.5671 41.4525 95.4967 41.6034 95.4327 40.4729C95.3966 39.8346 94.9841 38.9865 94.7847 38.4127C94.2663 36.9219 93.6977 35.449 93.1554 33.9669C92.2079 34.3992 90.8444 35.7327 89.9109 34.615C89.0482 33.5815 90.4836 31.8883 91.4834 31.5862C90.9614 30.4441 88.5023 30.6553 88.0338 28.9776C87.6268 27.5196 88.7962 28.099 89.052 27.5248C89.3531 26.849 88.7366 25.9355 89.0538 25.3129C90.1549 23.151 91.3743 27.126 91.9227 27.8356C92.9429 29.1552 94.7202 29.4435 94.8766 31.4396C94.9731 32.6686 94.8807 33.24 95.3866 34.4469C95.8523 35.5579 96.4058 36.6234 96.7965 37.7667C97.3845 39.4895 98.2913 42.6246 97.1421 44.2927C96.1728 45.6997 93.8193 46.7724 92.2888 47.374C91.5223 47.6751 90.4596 47.8586 89.8395 48.4451C89.0302 49.2102 89.2822 49.6804 89.34 50.8451Z" fill="#36392E"/>
<path fill-rule="evenodd" clip-rule="evenodd" d="M168.858 102.938C168.683 102.663 168.509 102.388 168.334 102.112C167.123 103.407 165.782 103.939 164.558 102.295C163.297 100.601 163.77 98.0623 164.261 96.213C164.513 95.2613 165.788 91.5092 166.606 94.3675C166.786 94.9984 166.183 96.4031 166.074 97.0207C165.859 98.2322 165.69 99.3942 165.841 100.628C167.261 99.356 167.957 96.1313 169.398 99.4798C169.92 100.694 169.978 102.694 171.369 100.849C172.112 99.8644 172.159 98.0461 172.507 96.8856C174.878 97.4532 174.446 100.963 173.655 102.673C172.394 105.396 170.679 104.52 168.858 102.938Z" fill="#36392E"/>
<path fill-rule="evenodd" clip-rule="evenodd" d="M177.161 41.8525C178.005 43.2605 176.409 45.8355 176.12 47.2812C177.533 47.1175 181.03 43.7061 182.014 44.2686C184.063 45.4391 179.735 49.5216 178.903 50.1199C172.257 54.9008 173.456 41.0712 177.161 41.8525Z" fill="#36392E"/>
<path fill-rule="evenodd" clip-rule="evenodd" d="M168.827 57.5327C171.31 56.8409 174.658 61.301 173.048 63.5098C171.892 65.0942 170.465 64.1881 170.103 62.7934C169.918 62.0821 170.082 61.2249 169.841 60.4316C169.544 59.4548 169.146 58.5034 168.827 57.5327Z" fill="#36392E"/>
<path fill-rule="evenodd" clip-rule="evenodd" d="M92.4604 38.3077C94.3488 39.8961 90.4904 43.7687 88.5562 40.7363C88.0242 39.9023 87.9274 39.141 88.7162 38.833C89.1146 38.6777 90.0539 39.1863 90.6161 39.0964C91.2323 38.9977 91.9018 38.5639 92.4604 38.3077Z" fill="#36392E"/>
<path fill-rule="evenodd" clip-rule="evenodd" d="M85.9719 31.956C85.2392 31.0412 83.18 25.4141 85.7317 26.6674C87.0131 27.2967 88.072 32.1071 85.9719 31.956Z" fill="#36392E"/>
<path fill-rule="evenodd" clip-rule="evenodd" d="M170.221 152.982C170.149 152.272 170.077 151.562 170.004 150.851C170.946 151.332 172.837 151.807 173.165 152.884C173.781 154.906 170.92 153.288 170.221 152.982Z" fill="#36392E"/>
<path fill-rule="evenodd" clip-rule="evenodd" d="M197.571 67.3296C197.01 66.5709 195.264 60.2419 196.779 60.3867C197.044 62.6827 197.098 65.067 197.571 67.3296Z" fill="#36392E"/>
<path fill-rule="evenodd" clip-rule="evenodd" d="M173.968 138.703C172.728 136.485 170.964 134.174 170.166 131.764C172.037 133.28 173.498 136.377 173.968 138.703Z" fill="#36392E"/>
<path fill-rule="evenodd" clip-rule="evenodd" d="M224.818 133.562C224.894 134.366 224.969 135.17 225.045 135.973C223.921 136.264 224.749 133.827 224.818 133.562Z" fill="#36392E"/>
<path fill-rule="evenodd" clip-rule="evenodd" d="M170.169 131.768C169.637 131.188 169.409 130.476 169.277 129.722C169.574 130.403 169.871 131.085 170.169 131.768Z" fill="#36392E"/>
<path fill-rule="evenodd" clip-rule="evenodd" d="M176.599 168.154C176.619 167.439 176.639 166.724 176.658 166.01C176.639 166.726 176.619 167.44 176.599 168.154Z" fill="#36392E"/>
<path fill-rule="evenodd" clip-rule="evenodd" d="M92.5961 52.1132C93.0717 52.1724 93.5477 52.2316 94.0236 52.2908C93.648 52.4668 92.7632 52.7008 92.5961 52.1132Z" fill="#36392E"/>
<path fill-rule="evenodd" clip-rule="evenodd" d="M187.477 175.66C187.972 175.585 188.469 175.415 188.955 175.689C188.461 175.679 187.969 175.67 187.477 175.66Z" fill="#36392E"/>
<path fill-rule="evenodd" clip-rule="evenodd" d="M173.331 159.504C173.338 160.033 173.345 160.563 173.351 161.091C173.344 160.561 173.338 160.032 173.331 159.504Z" fill="#36392E"/>
<path fill-rule="evenodd" clip-rule="evenodd" d="M183.56 151.262C183.529 151.827 183.498 152.391 183.467 152.955C183.498 152.39 183.529 151.826 183.56 151.262Z" fill="#36392E"/>
<path fill-rule="evenodd" clip-rule="evenodd" d="M176.826 153.472C176.799 152.981 176.772 152.489 176.745 151.999C176.772 152.491 176.799 152.982 176.826 153.472Z" fill="#36392E"/>
<path fill-rule="evenodd" clip-rule="evenodd" d="M191.536 157.808C191.51 158.246 191.483 158.684 191.457 159.12C191.483 158.682 191.51 158.245 191.536 157.808Z" fill="#36392E"/>
<path fill-rule="evenodd" clip-rule="evenodd" d="M102.653 168.867C102.171 169.11 101.69 169.134 101.21 168.864C101.691 168.865 102.172 168.866 102.653 168.867Z" fill="#36392E"/>
<path fill-rule="evenodd" clip-rule="evenodd" d="M151.943 36.5931C151.95 37.0259 151.956 37.4587 151.963 37.8897C151.956 37.4564 151.949 37.0249 151.943 36.5931Z" fill="#36392E"/>
<path fill-rule="evenodd" clip-rule="evenodd" d="M104.121 48.4016C103.628 48.439 103.134 48.4761 102.642 48.5135C103.135 48.4761 103.628 48.439 104.121 48.4016Z" fill="#36392E"/>
<path fill-rule="evenodd" clip-rule="evenodd" d="M205.993 50.0671C205.99 49.64 205.987 49.2128 205.985 48.7864C206.212 49.2128 206.216 49.6395 205.993 50.0671Z" fill="#36392E"/>
<path fill-rule="evenodd" clip-rule="evenodd" d="M89.34 50.8451C89.3175 50.3913 89.295 49.9377 89.2727 49.4847C89.2955 49.9387 89.3178 50.3918 89.34 50.8451Z" fill="#36392E"/>
<path fill-rule="evenodd" clip-rule="evenodd" d="M210.525 184.913C210.858 184.915 211.191 184.917 211.521 184.92C211.187 184.917 210.856 184.915 210.525 184.913Z" fill="#36392E"/>
<path fill-rule="evenodd" clip-rule="evenodd" d="M79.4251 11.8635C78.9871 11.9009 78.5491 11.9383 78.111 11.9754C78.5491 11.9383 78.9871 11.9009 79.4251 11.8635Z" fill="#36392E"/>
<path fill-rule="evenodd" clip-rule="evenodd" d="M122.629 179.267C122.912 179.266 123.194 179.266 123.473 179.266C123.19 179.267 122.91 179.267 122.629 179.267Z" fill="#36392E"/>
<path fill-rule="evenodd" clip-rule="evenodd" d="M166.375 60.6755C165.946 60.6327 165.518 60.5897 165.09 60.5466C165.518 60.5897 165.947 60.6327 166.375 60.6755Z" fill="#36392E"/>
<path fill-rule="evenodd" clip-rule="evenodd" d="M185.844 178.519C185.87 178.165 185.896 177.812 185.923 177.46C185.896 177.814 185.87 178.166 185.844 178.519Z" fill="#36392E"/>
<path fill-rule="evenodd" clip-rule="evenodd" d="M139.48 56.1513C139.059 56.1475 138.637 56.1439 138.216 56.1403C138.639 55.8948 139.06 55.965 139.48 56.1513Z" fill="#36392E"/>
<path fill-rule="evenodd" clip-rule="evenodd" d="M83.2174 11.9816C82.7924 11.968 82.3431 12.1896 81.9514 11.8524C82.3736 11.8955 82.7955 11.9385 83.2174 11.9816Z" fill="#36392E"/>
<path fill-rule="evenodd" clip-rule="evenodd" d="M71.7387 53.6855C71.3314 53.7229 70.9238 53.7603 70.5168 53.7975C70.9244 53.7601 71.3314 53.7229 71.7387 53.6855Z" fill="#36392E"/>
<path fill-rule="evenodd" clip-rule="evenodd" d="M97.402 168.501C96.9729 168.545 96.5436 168.59 96.115 168.635C96.5441 168.59 96.9732 168.545 97.402 168.501Z" fill="#36392E"/>
<path fill-rule="evenodd" clip-rule="evenodd" d="M108.083 48.1428C107.665 48.1517 107.246 48.1607 106.828 48.1697C107.243 48.0034 107.658 47.8466 108.083 48.1428Z" fill="#36392E"/>
<path fill-rule="evenodd" clip-rule="evenodd" d="M176.584 162.708C176.582 162.345 176.579 161.982 176.577 161.619C176.579 161.983 176.582 162.345 176.584 162.708Z" fill="#36392E"/>
<path fill-rule="evenodd" clip-rule="evenodd" d="M224.972 131.918C224.927 132.357 224.881 132.795 224.837 133.234C224.881 132.796 224.927 132.357 224.972 131.918Z" fill="#36392E"/>
<path fill-rule="evenodd" clip-rule="evenodd" d="M170.675 160.207C170.644 159.833 170.613 159.46 170.582 159.087C170.613 159.461 170.644 159.834 170.675 160.207Z" fill="#36392E"/>
<path fill-rule="evenodd" clip-rule="evenodd" d="M29.92 156.775C29.8434 157.147 29.572 157.221 29.1058 156.995L29.92 156.775Z" fill="#36392E"/>
<path fill-rule="evenodd" clip-rule="evenodd" d="M186.296 156.94C186.271 156.616 186.247 156.291 186.222 155.967C186.247 156.292 186.271 156.616 186.296 156.94Z" fill="#36392E"/>
<path fill-rule="evenodd" clip-rule="evenodd" d="M98.6206 48.925C98.2686 48.973 97.9163 49.0206 97.5643 49.0686C97.9165 49.0206 98.2686 48.973 98.6206 48.925Z" fill="#36392E"/>
<path fill-rule="evenodd" clip-rule="evenodd" d="M173.119 154.173C173.119 154.492 173.118 154.811 173.118 155.128C173.118 154.809 173.119 154.491 173.119 154.173Z" fill="#36392E"/>
<path fill-rule="evenodd" clip-rule="evenodd" d="M151.88 39.7385C151.88 40.0401 151.88 40.3415 151.881 40.6415C151.88 40.3397 151.88 40.0391 151.88 39.7385Z" fill="#36392E"/>
<path fill-rule="evenodd" clip-rule="evenodd" d="M23.4459 110.376C23.4111 110.694 23.3762 111.012 23.3417 111.328C23.3765 111.01 23.4111 110.693 23.4459 110.376Z" fill="#36392E"/>
<path fill-rule="evenodd" clip-rule="evenodd" d="M234.386 132.221C234.367 131.922 234.348 131.623 234.33 131.325C234.348 131.625 234.367 131.923 234.386 132.221Z" fill="#36392E"/>
<path fill-rule="evenodd" clip-rule="evenodd" d="M52.5205 171.721C52.1567 171.715 51.7929 171.71 51.4291 171.704C51.7972 171.451 52.16 171.506 52.5205 171.721Z" fill="#36392E"/>
<path fill-rule="evenodd" clip-rule="evenodd" d="M94.8856 31.8891C94.8797 31.589 94.8738 31.289 94.8679 30.9899C95.0548 31.2869 95.1147 31.5852 94.8856 31.8891Z" fill="#36392E"/>
<path fill-rule="evenodd" clip-rule="evenodd" d="M65.8381 28.0833C65.8635 27.7874 65.8888 27.4914 65.9139 27.1973C65.8886 27.4937 65.8635 27.7884 65.8381 28.0833Z" fill="#36392E"/>
<path fill-rule="evenodd" clip-rule="evenodd" d="M186.082 131.686C186.07 131.36 186.057 131.034 186.045 130.708C186.057 131.035 186.07 131.361 186.082 131.686Z" fill="#36392E"/>
<path fill-rule="evenodd" clip-rule="evenodd" d="M183.74 148.538C183.731 148.846 183.722 149.153 183.713 149.459C183.722 149.151 183.731 148.845 183.74 148.538Z" fill="#36392E"/>
<path fill-rule="evenodd" clip-rule="evenodd" d="M141.867 178.207C142.095 178.206 142.323 178.206 142.548 178.206C142.319 178.207 142.093 178.207 141.867 178.207Z" fill="#36392E"/>
<path fill-rule="evenodd" clip-rule="evenodd" d="M30.9368 178.363C31.1644 178.369 31.3918 178.375 31.6165 178.381C31.3882 178.375 31.1624 178.369 30.9368 178.363Z" fill="#36392E"/>
<path fill-rule="evenodd" clip-rule="evenodd" d="M168.54 151.363C166.321 149.647 164.386 147.08 163.936 144.333C164.89 145.412 165.692 146.616 166.647 147.694C167.026 148.122 167.491 148.491 167.855 148.928C168.686 149.923 168.54 149.967 168.54 151.363Z" fill="#36392E"/>
<path fill-rule="evenodd" clip-rule="evenodd" d="M160.744 139.763C159.679 137.307 158.755 134.329 158.941 131.62C159.675 134.08 161.38 137.169 160.744 139.763Z" fill="#36392E"/>
<path fill-rule="evenodd" clip-rule="evenodd" d="M164.317 154.201C164.299 154.914 164.281 155.627 164.264 156.338C164.283 155.624 164.3 154.913 164.317 154.201Z" fill="#36392E"/>
<path fill-rule="evenodd" clip-rule="evenodd" d="M23.4839 173.576C24.2118 173.62 24.9399 173.663 25.6678 173.706C24.9366 173.716 24.1957 173.893 23.4839 173.576Z" fill="#36392E"/>
<path fill-rule="evenodd" clip-rule="evenodd" d="M164.314 151.846C164.316 152.454 164.319 153.062 164.322 153.668C164.319 153.06 164.316 152.453 164.314 151.846Z" fill="#36392E"/>
<path fill-rule="evenodd" clip-rule="evenodd" d="M134.407 81.3678C133.998 81.3466 133.588 81.325 133.181 81.3038C133.592 81.325 134 81.3466 134.407 81.3678Z" fill="#36392E"/>
<path fill-rule="evenodd" clip-rule="evenodd" d="M141.073 66.2488C141.072 65.7555 141.07 65.2623 141.069 64.77C141.07 65.2635 141.072 65.7563 141.073 66.2488Z" fill="#36392E"/>
<path fill-rule="evenodd" clip-rule="evenodd" d="M132.273 78.6228C132.254 78.2758 132.07 78.101 131.719 78.0987C132.423 77.7179 132.608 77.8927 132.273 78.6228Z" fill="#36392E"/>
<path fill-rule="evenodd" clip-rule="evenodd" d="M153.151 106.064C153.178 105.626 153.206 105.187 153.233 104.749C153.206 105.188 153.178 105.626 153.151 106.064Z" fill="#36392E"/>
<path fill-rule="evenodd" clip-rule="evenodd" d="M33.8183 173.887C34.3093 173.852 34.8004 173.818 35.2914 173.784C34.8001 173.818 34.3093 173.852 33.8183 173.887Z" fill="#36392E"/>
<path fill-rule="evenodd" clip-rule="evenodd" d="M136.95 114.294L138.411 114.284C137.924 114.287 137.437 114.291 136.95 114.294Z" fill="#36392E"/>
<path fill-rule="evenodd" clip-rule="evenodd" d="M150.897 60.8047C150.557 60.8075 150.218 60.8103 149.881 60.8129C150.222 60.8101 150.559 60.8075 150.897 60.8047Z" fill="#36392E"/>
<path fill-rule="evenodd" clip-rule="evenodd" d="M221.728 179.578C222.154 179.576 222.58 179.574 223.006 179.572C222.581 179.841 222.155 179.834 221.728 179.578Z" fill="#36392E"/>
<path fill-rule="evenodd" clip-rule="evenodd" d="M42.8961 120.565C42.6073 120.574 42.3185 120.582 42.0325 120.59C42.3223 120.582 42.6091 120.574 42.8961 120.565Z" fill="#36392E"/>
<path fill-rule="evenodd" clip-rule="evenodd" d="M196.291 56.7023C196.564 56.9662 196.205 57.573 195.879 57.3639C196.016 57.1433 196.153 56.9229 196.291 56.7023Z" fill="#36392E"/>
<path fill-rule="evenodd" clip-rule="evenodd" d="M62.7729 147.283C62.7849 146.91 62.7972 146.536 62.8092 146.163C62.797 146.537 62.7849 146.91 62.7729 147.283Z" fill="#36392E"/>
<path fill-rule="evenodd" clip-rule="evenodd" d="M160.41 147.489C160.43 147.1 160.45 146.71 160.469 146.321C160.449 146.711 160.43 147.1 160.41 147.489Z" fill="#36392E"/>
<path fill-rule="evenodd" clip-rule="evenodd" d="M228.549 106.896C228.565 107.286 228.581 107.676 228.597 108.064C228.581 107.674 228.564 107.285 228.549 106.896Z" fill="#36392E"/>
<path fill-rule="evenodd" clip-rule="evenodd" d="M96.9731 151.063C97.4094 151.101 97.8454 151.138 98.2816 151.175C97.8454 151.138 97.4091 151.101 96.9731 151.063Z" fill="#36392E"/>
<path fill-rule="evenodd" clip-rule="evenodd" d="M156.795 121.151C156.816 120.763 156.837 120.376 156.859 119.989C156.837 120.377 156.816 120.764 156.795 121.151Z" fill="#36392E"/>
<path fill-rule="evenodd" clip-rule="evenodd" d="M81.0034 128.52C81.4381 128.561 81.8728 128.601 82.3076 128.641C81.8728 128.6 81.4381 128.56 81.0034 128.52Z" fill="#36392E"/>
<path fill-rule="evenodd" clip-rule="evenodd" d="M119.471 162.397C119.191 162.398 118.911 162.398 118.634 162.398C118.915 162.397 119.193 162.397 119.471 162.397Z" fill="#36392E"/>
<path fill-rule="evenodd" clip-rule="evenodd" d="M144.165 67.7058C144.148 68.0679 144.132 68.4297 144.116 68.79C144.132 68.4276 144.149 68.0666 144.165 67.7058Z" fill="#36392E"/>
<path fill-rule="evenodd" clip-rule="evenodd" d="M150.367 155.526C150.797 155.22 151.216 155.422 151.636 155.555C151.213 155.545 150.79 155.536 150.367 155.526Z" fill="#36392E"/>
<path fill-rule="evenodd" clip-rule="evenodd" d="M100.057 51.931C99.7742 51.9195 99.4913 51.9077 99.2112 51.8949C99.4954 51.9064 99.7763 51.9187 100.057 51.931Z" fill="#36392E"/>
<path fill-rule="evenodd" clip-rule="evenodd" d="M168.659 162.184C168.634 161.823 168.608 161.463 168.583 161.104C168.608 161.465 168.634 161.824 168.659 162.184Z" fill="#36392E"/>
<path fill-rule="evenodd" clip-rule="evenodd" d="M145.489 121.495C145.256 121.496 145.023 121.498 144.792 121.5C145.026 121.499 145.258 121.497 145.489 121.495Z" fill="#36392E"/>
<path fill-rule="evenodd" clip-rule="evenodd" d="M155.328 134.587C155.328 134.287 155.328 133.986 155.328 133.687C155.328 133.988 155.328 134.288 155.328 134.587Z" fill="#36392E"/>
<path fill-rule="evenodd" clip-rule="evenodd" d="M140.404 156.637C140.754 156.591 141.103 156.546 141.452 156.501C141.102 156.546 140.753 156.591 140.404 156.637Z" fill="#36392E"/>
<path fill-rule="evenodd" clip-rule="evenodd" d="M125.302 112.896C125.68 112.894 126.058 112.891 126.437 112.889C126.06 113.111 125.681 113.07 125.302 112.896Z" fill="#36392E"/>
<path fill-rule="evenodd" clip-rule="evenodd" d="M144.903 76.0938C144.684 76.0918 144.466 76.0897 144.25 76.088C144.47 76.0897 144.686 76.0918 144.903 76.0938Z" fill="#36392E"/>
<path fill-rule="evenodd" clip-rule="evenodd" d="M80.2845 131.865C80.059 131.862 79.8337 131.858 79.611 131.855C79.8375 131.858 80.061 131.862 80.2845 131.865Z" fill="#36392E"/>
<path fill-rule="evenodd" clip-rule="evenodd" d="M36.721 117.064C37.0986 117.068 37.4762 117.072 37.8539 117.076C37.4739 117.29 37.0963 117.295 36.721 117.064Z" fill="#36392E"/>
<path fill-rule="evenodd" clip-rule="evenodd" d="M228.585 117.69C228.561 117.978 228.537 118.266 228.515 118.553C228.538 118.264 228.562 117.977 228.585 117.69Z" fill="#36392E"/>
<path fill-rule="evenodd" clip-rule="evenodd" d="M132.449 164.035C132.481 163.72 132.513 163.405 132.545 163.092C132.513 163.407 132.481 163.721 132.449 164.035Z" fill="#36392E"/>
<path fill-rule="evenodd" clip-rule="evenodd" d="M71.3888 126.517C71.7703 126.522 72.152 126.528 72.5337 126.533C72.1481 126.799 71.7687 126.631 71.3888 126.517Z" fill="#36392E"/>
<path fill-rule="evenodd" clip-rule="evenodd" d="M158.383 71.2358C158.754 71.1937 159.125 71.1517 159.496 71.1097C159.125 71.1517 158.754 71.1937 158.383 71.2358Z" fill="#36392E"/>
<path fill-rule="evenodd" clip-rule="evenodd" d="M127.369 172.156C127.402 172.487 127.436 172.818 127.469 173.148C127.435 172.816 127.402 172.486 127.369 172.156Z" fill="#36392E"/>
<path fill-rule="evenodd" clip-rule="evenodd" d="M160.416 150.399C160.416 150.091 160.415 149.782 160.415 149.475C160.415 149.784 160.416 150.092 160.416 150.399Z" fill="#36392E"/>
<path fill-rule="evenodd" clip-rule="evenodd" d="M25.8483 173.75C26.2075 173.798 26.5666 173.845 26.9256 173.892C26.5664 173.845 26.2072 173.798 25.8483 173.75Z" fill="#36392E"/>
<path fill-rule="evenodd" clip-rule="evenodd" d="M32.5869 173.896C32.9414 173.606 33.3014 173.694 33.6626 173.88C33.304 173.885 32.9453 173.89 32.5869 173.896Z" fill="#36392E"/>
<path fill-rule="evenodd" clip-rule="evenodd" d="M97.3812 131.381C97.7325 131.338 98.0837 131.295 98.4345 131.251C98.0832 131.295 97.7322 131.338 97.3812 131.381Z" fill="#36392E"/>
<path fill-rule="evenodd" clip-rule="evenodd" d="M136.409 175.53C136.767 175.482 137.125 175.434 137.483 175.386C137.125 175.434 136.767 175.482 136.409 175.53Z" fill="#36392E"/>
<path fill-rule="evenodd" clip-rule="evenodd" d="M123.891 176.086C124.256 176.039 124.621 175.992 124.986 175.945C124.621 175.992 124.256 176.039 123.891 176.086Z" fill="#36392E"/>
<path fill-rule="evenodd" clip-rule="evenodd" d="M143.987 69.8941C143.971 70.189 143.955 70.4842 143.939 70.7774C143.955 70.4817 143.971 70.1878 143.987 69.8941Z" fill="#36392E"/>
<path fill-rule="evenodd" clip-rule="evenodd" d="M58.0161 140.225C58.0486 139.912 58.0811 139.598 58.1136 139.286C58.0809 139.6 58.0486 139.912 58.0161 140.225Z" fill="#36392E"/>
<path fill-rule="evenodd" clip-rule="evenodd" d="M141.168 62.265C141.178 61.9578 141.187 61.6505 141.197 61.3448C141.188 61.6526 141.178 61.9588 141.168 62.265Z" fill="#36392E"/>
<path fill-rule="evenodd" clip-rule="evenodd" d="M71.4536 136.742C71.4858 137.055 71.5181 137.369 71.5501 137.681C71.5178 137.367 71.4856 137.055 71.4536 136.742Z" fill="#36392E"/>
<path fill-rule="evenodd" clip-rule="evenodd" d="M72.663 126.52C73.0332 126.561 73.4034 126.601 73.7733 126.642C73.4031 126.601 73.0329 126.561 72.663 126.52Z" fill="#36392E"/>
<path fill-rule="evenodd" clip-rule="evenodd" d="M131.596 172.24C131.807 172.86 131.729 174.3 131.13 174.737C129.888 175.643 129.761 173.988 129.514 173.094C128.83 170.615 127.729 167.847 127.449 165.298C127.363 164.516 127.316 163.052 128.349 162.788C129.347 162.534 129.852 164.116 130.196 164.928C131.15 167.182 131.704 169.796 131.596 172.24Z" fill="#36392E"/>
<path fill-rule="evenodd" clip-rule="evenodd" d="M131.596 172.24C131.61 171.92 131.624 171.6 131.638 171.281C131.624 171.602 131.61 171.921 131.596 172.24Z" fill="#36392E"/>
</svg>
