<svg width="209" height="149" viewBox="0 0 209 149" fill="none" xmlns="http://www.w3.org/2000/svg">
<path fill-rule="evenodd" clip-rule="evenodd" d="M88.8689 62.6516C86.6162 64.2822 86.9747 67.4908 87.6529 69.8218C88.6516 73.2543 90.6406 76.4317 92.9096 79.1706C96.935 84.0296 103.769 89.4854 110.068 85.2197C115.677 81.4207 119.216 73.7551 120.437 67.2982C120.815 65.3028 121.317 62.3295 119.544 60.8295C116.922 58.6121 112.296 59.0154 109.131 59.3009C107.046 59.4888 105.035 60.1267 102.975 59.8274C98.1884 59.1309 92.8614 59.7617 88.8689 62.6516Z" fill="#75A342"/>
<path fill-rule="evenodd" clip-rule="evenodd" d="M185.915 88.0783C181.351 93.8584 173.593 94.7717 166.702 94.7151C162.564 94.6808 158.418 94.3698 154.361 93.528C152.174 93.0739 150.002 92.4725 147.889 91.7501C146.493 91.2728 144.415 91.0342 143.821 89.5408C142.254 85.6009 143.407 80.6597 144.052 76.6604C144.381 74.6262 144.627 72.5798 144.946 70.5441C145.15 69.2415 145.248 67.8005 145.795 66.5819C146.435 65.1545 147.243 65.4395 148.598 65.8337C150.463 66.3775 152.378 66.6034 154.295 66.8959C158.976 67.6094 163.059 69.0485 167.313 71.0882C171.519 73.1046 175.598 75.0953 179.35 77.8992C181.251 79.3205 182.888 80.8628 184.414 82.6739C185.593 84.0731 187.352 86.2574 185.915 88.0783ZM165.966 113.752C165.93 114.374 158.777 112.495 157.836 112.284C151.661 110.901 145.363 109.326 139.533 106.827C134.091 104.495 129.296 101.827 125.014 97.6827C123.018 95.751 121.222 93.7171 119.504 91.5508C118.643 90.465 117.467 90.5911 116.507 89.6726C115.643 88.8458 114.981 88.2002 115.251 86.9643C117.409 87.5321 121.394 91.1012 123.631 89.2988C124.906 88.2716 123.138 87.1984 122.321 86.6032C120.786 85.4837 119.474 84.1028 118.254 82.6534C120.349 83.059 122.299 83.8423 124.122 84.9328C124.932 85.4172 127.708 87.1739 128.355 85.4993C128.753 84.4683 126.87 83.1729 126.283 82.6024C124.841 81.2022 123.286 79.5674 122.52 77.6847C124.412 77.2465 126.196 78.7065 127.484 79.8957C128.914 81.216 130.668 82.6017 131.867 84.123C132.486 84.9076 132.62 85.8345 133.103 86.6808C133.647 87.6329 134.517 88.4491 135.348 89.1535C136.95 90.5112 138.824 91.5108 140.747 92.3376C145.141 94.2265 149.851 95.5634 154.535 96.5012C156.833 96.9614 159.074 97.1733 161.406 97.2514C163.219 97.3122 164.021 97.8535 164.713 99.5209C166.586 104.033 166.246 108.997 165.966 113.752ZM112.179 79.3702C111.13 80.3492 109.769 80.9634 108.673 81.9047C107.709 82.7329 106.598 83.6166 105.522 84.2864C104.373 85.0013 103.515 84.5 102.481 83.8531C101.267 83.0943 99.8715 82.7866 98.6211 82.1076C94.2981 79.7582 89.0095 74.0018 89.8165 68.7163C90.1584 66.4762 91.3184 64.2719 93.4248 63.2552C95.3378 62.3326 98.1186 61.8202 100.165 62.5918C101.32 63.0271 102.146 63.9879 102.885 64.9326C103.748 66.0337 104.078 65.8602 104.956 64.7981C106.528 62.8981 109.12 61.2311 111.683 61.2712C112.956 61.2915 114.221 61.5594 115.368 62.0871C115.523 62.1588 115.61 62.3753 115.766 62.4487C115.958 62.5389 116.272 62.3513 116.406 62.4356C116.741 62.6479 117.077 63.3111 117.27 63.6478C118.048 64.9981 119.447 67.6463 118.037 68.7833C118.036 68.7838 118.1 70.3217 118.08 70.4969C117.981 71.4144 117.663 72.1718 117.254 73.0109C116.025 75.5313 114.211 77.4719 112.179 79.3702ZM114.268 100.696C113.275 101.004 112.206 97.8977 113.158 97.4019C114.066 96.9291 115.167 100.417 114.268 100.696ZM98.6755 96.982C98.3317 98.1553 98.1864 99.4871 97.3457 100.442C96.5758 99.5301 96.4998 97.8471 97.2465 96.9093C97.6727 96.3744 99.0516 95.6996 98.6755 96.982ZM130.445 76.4219C130.439 76.4515 131.639 77.0247 131.054 77.6513C130.254 78.5073 130.364 76.8413 130.445 76.4219ZM135.404 66.8583C135.391 68.0447 132.875 67.7582 132.893 66.5649C132.915 65.0962 135.419 65.6004 135.404 66.8583ZM132.402 56.942C132.651 55.8556 137.026 54.3444 136.907 56.2378C136.847 57.1869 131.874 59.2515 132.402 56.942ZM87.5445 93.7816C87.0541 94.3703 86.3573 94.6024 85.7696 95.0545C85.1529 95.5281 84.7123 96.1426 84.1739 96.6987C82.695 98.2252 80.9149 99.4796 79.3195 100.882C76.3865 103.46 73.5768 106.231 70.325 108.418C64.5138 112.324 57.7748 114.461 51.085 116.332C50.5307 116.487 48.9343 117.112 48.386 116.647C47.7946 116.144 48.0954 114.376 48.1226 113.707C48.2335 110.966 48.5536 108.192 48.5189 105.455C48.5046 104.33 48.1748 102.732 48.7623 101.703C49.4183 100.555 51.2499 100.218 52.3827 99.7861C55.8263 98.4719 59.1435 96.255 62.1853 94.202C65.9246 91.6779 69.7009 89.112 73.5491 86.7559C77.319 84.4476 81.4776 82.9018 85.6829 81.5834C85.8778 81.9922 83.8711 83.3076 83.6417 83.492C82.5415 84.3764 81.3446 85.2932 80.528 86.4606C79.9497 87.2871 79.3568 89.1572 80.9533 89.2052C81.7271 89.2284 82.8713 88.4809 83.5731 88.2392C84.7321 87.8398 85.9265 87.5595 87.139 87.3771C86.0966 88.523 82.5636 90.5814 83.2065 92.4871C83.83 94.3365 87.4376 92.1784 88.6793 92.1784C88.4758 92.8233 87.9641 93.2783 87.5445 93.7816ZM44.9255 98.9433C42.6151 99.7545 40.2471 100.216 37.8627 100.739C35.5899 101.239 33.4892 101.615 31.1613 101.323C27.9473 100.919 24.3906 99.5899 23.9831 95.9433C23.4999 91.6228 26.5559 87.6524 29.1799 84.5526C32.3735 80.7813 35.9595 77.4096 39.846 74.3568C43.7281 71.3066 47.9184 68.6179 52.3081 66.3479C55.6478 64.6209 59.4197 63.5724 62.951 62.2762C63.6229 62.0298 65.481 61.1634 66.1092 61.8815C66.6172 62.4621 65.9261 63.4292 65.6946 63.9683C65.2431 65.0193 65.1809 66.0775 65.0643 67.2058C64.5438 72.2452 63.917 77.283 63.6286 82.3442C63.5484 83.7545 63.4068 85.2301 63.4892 86.6415C63.5347 87.4233 63.9422 88.4189 63.6709 89.1822C63.1493 90.6494 60.7607 91.6205 59.4947 92.276C57.2287 93.4494 54.8289 94.3249 52.5394 95.447C50.025 96.6797 47.5767 98.0119 44.9255 98.9433ZM76.9662 66.1991C77.6005 66.1121 78.5503 65.9395 79.1157 66.3498C79.8529 66.8847 79.6596 67.629 78.9786 68.017C78.4409 68.3238 77.1824 68.4076 76.6511 68.1292C75.7461 67.6554 75.8993 66.3456 76.9662 66.1991ZM80.4782 77.8681C79.9658 78.7203 78.0931 79.2792 78.2562 77.6889C78.3961 76.3272 81.4221 76.2988 80.4782 77.8681ZM79.7831 53.8605C80.6069 54.1791 82.1019 54.4517 82.3462 55.5098C82.5735 56.4946 81.639 56.4296 80.9644 56.1584C80.4097 55.936 77.9384 53.8434 79.7831 53.8605ZM208.854 91.428C208.373 89.5584 208.739 87.4888 208.473 85.574C208.216 83.7177 207.752 82.0119 207.087 80.2627C205.615 76.39 203.927 72.9039 201.54 69.505C197.045 63.1045 191.828 57.4667 185.53 52.7917C179.312 48.1765 172.426 44.4256 165.132 41.7969C157.398 39.0091 149.612 38.0389 141.456 37.5045C139.02 37.3451 136.586 37.156 134.164 36.8488C132.394 36.6244 130.175 36.3478 128.425 36.8891C127.326 37.2294 126.711 38.1867 127.909 38.815C128.758 39.2605 129.87 39.3138 130.808 39.4322C129.675 43.0261 127.832 46.6326 124.91 49.1073C122.058 51.5234 118.241 52.3517 114.641 52.9645C112.69 53.2964 110.504 53.5535 108.522 53.4101C107.268 53.3199 106.291 52.7405 105.785 54.0293C105.434 54.9248 105.268 55.9073 104.805 54.5553C104.258 52.9568 103.99 52.9669 102.288 52.5129C98.807 51.5845 94.8165 50.7374 91.7798 48.7294C88.6295 46.6462 87.5339 43.2763 85.775 40.1382C85.3401 39.3625 84.0281 37.7927 84.6984 36.9039C85.3116 36.0912 87.3051 36.1723 88.2181 36.0875C89.1815 35.998 90.151 35.9943 91.1176 35.9567C91.6776 35.9352 92.8042 36.1644 92.5787 35.3292C92.2388 34.0703 88.5968 34.2317 87.6926 34.2112C86.0107 34.1736 84.3056 34.2124 82.6321 34.3971C74.3351 35.3134 65.9632 37.0075 57.9342 39.2666C42.3564 43.6495 27.2693 51.7256 15.9009 63.3605C4.98817 74.529 1.53087 93.1142 8.23948 107.374C11.726 114.786 19.292 117.83 26.6264 120.289C30.4951 121.586 34.5916 122.6 38.7041 122.355C40.6776 122.238 42.55 121.707 44.4747 121.308C45.3141 121.133 46.2694 120.855 47.1316 120.925C47.7842 120.978 48.4112 121.577 49.0234 121.259C49.4579 121.033 49.6467 120.386 50.1777 120.11C50.8154 119.779 51.5883 119.659 52.277 119.492C54.1908 119.028 56.0439 118.275 57.9146 117.658C59.8492 117.02 61.6749 116.197 63.531 115.366C64.4682 114.946 66.637 113.24 67.248 114.488C67.5262 115.057 67.4076 116.155 67.4755 116.753C67.5943 117.797 67.7339 118.839 67.8866 119.88C68.2228 122.169 68.6253 124.45 69.0378 126.727C69.7821 130.837 70.7416 134.771 72.3457 138.636C73.6266 141.723 74.7509 145.221 77.1294 147.677C78.1676 148.749 79.5841 149.231 81.0733 148.894C82.7671 148.511 83.6102 146.975 84.6385 145.733C86.9009 142.999 90.6361 140.905 94.0852 140.151C98.3087 139.227 102.423 140.578 106.454 141.726C110.719 142.94 115.06 144.097 119.246 145.556C123.146 146.916 127.358 148.925 131.587 148.75C135.276 148.598 138.722 145.6 141.382 143.315C144.054 141.02 147.395 137.66 151.237 137.931C153.144 138.065 154.883 138.984 156.741 139.357C158.781 139.767 160.952 139.825 163.026 139.978C165.601 140.168 171.363 139.498 172.315 136.405C172.457 135.946 172.457 135.001 171.851 134.817C171.292 134.648 171.007 135.3 170.478 135.27C169.402 135.21 168.561 133.336 167.97 132.611C165.584 129.683 162.312 127.499 159.635 124.854C156.612 121.868 154.031 118.25 151.754 114.681C152.784 114.414 153.894 114.858 154.891 115.069C156.102 115.325 157.282 115.634 158.475 115.962C159.79 116.324 161.124 116.572 162.459 116.848C163.455 117.053 164.777 117.115 165.676 117.614C166.461 118.049 166.899 118.517 167.873 118.643C168.864 118.772 169.881 118.664 170.876 118.657C173.568 118.639 176.254 118.589 178.934 118.305C188.401 117.301 198.436 113.302 204.129 105.367C205.677 103.209 206.925 100.818 207.713 98.2806C208.328 96.2995 209.389 93.5079 208.854 91.428Z" fill="#36392E"/>
<path fill-rule="evenodd" clip-rule="evenodd" d="M99.2934 22.7987C97.6086 23.3208 95.6173 22.7065 94.6489 21.205C93.6642 19.6782 92.9903 17.9114 92.8547 16.0927C92.725 14.3501 93.1213 12.5858 94.1506 11.1552C95.2457 9.63332 97.4781 7.92758 99.4793 8.45603C99.9009 8.56751 100.282 8.83569 100.66 9.10189C101.061 9.38416 101.459 9.66421 101.898 9.75171C102.011 9.77421 102.09 9.79546 102.149 9.81103C102.228 9.83229 102.271 9.84366 102.308 9.83501C102.352 9.82512 102.389 9.78928 102.468 9.71241C102.514 9.66841 102.573 9.61107 102.655 9.53766C102.825 9.38664 102.988 9.15924 103.148 8.93678H103.149C103.256 8.78724 103.362 8.63968 103.467 8.51931C103.669 8.28771 103.871 8.05364 104.074 7.81907C105.375 6.31132 106.702 4.77464 108.292 3.58211C111.588 1.11112 115.969 -0.0559522 120.059 0.00205921C122.546 0.0372319 124.878 0.773855 127.197 1.6113C127.391 1.68157 127.587 1.75132 127.783 1.82132L127.784 1.82157C129.646 2.48501 131.566 3.1693 133.057 4.49855C136.022 7.14256 136.795 11.5202 137.28 15.2654C137.805 19.3212 136.357 22.8106 134.858 26.4255V26.426L134.857 26.4267V26.427C134.629 26.9772 134.4 27.5301 134.176 28.0882C132.591 32.0427 129.681 35.2463 126.222 37.6874C124.41 38.966 122.407 39.738 120.312 40.4147C119.877 40.5551 119.445 40.7054 119.013 40.8554H119.013H119.013C117.332 41.4397 115.657 42.0221 113.845 42.0194C110.386 42.0144 105.959 40.3744 104.486 36.9726C103.815 35.4236 104.468 35.1455 105.81 35.9874C106.045 36.1344 106.279 36.283 106.512 36.4313V36.4315H106.512L106.513 36.4323C108.216 37.5154 109.909 38.5921 111.91 39.0684C116.322 40.1193 121.606 38.4912 125.475 36.3428C129.343 34.1951 131.939 30.9685 133.675 26.9512C135.425 22.8981 136.106 18.9043 135.43 14.535C134.859 10.8321 133.72 7.44979 130.378 5.43978C123.164 1.10116 113.444 1.45074 107.029 7.08917C106.149 7.86208 105.279 8.61422 104.372 9.35253C103.796 9.82166 103.117 10.3845 103.201 11.1957C103.219 11.3746 103.331 11.6853 103.457 12.0336C103.82 13.0381 104.296 14.3573 102.97 13.7465C102.423 13.4946 101.97 13.1518 101.524 12.8139C100.789 12.2573 100.072 11.714 98.98 11.6137C97.1128 11.4416 94.8856 12.8737 94.3268 14.6764C93.7941 16.3965 94.7442 18.7498 96.2322 19.7363C97.0694 20.2914 97.9831 20.2642 98.928 20.236C99.0231 20.2333 99.1187 20.2303 99.2142 20.2281C99.287 20.2264 99.3781 20.2217 99.4816 20.2163C100.117 20.1826 101.228 20.1243 101.523 20.5957C102.131 21.5653 99.9858 22.5844 99.2934 22.7987ZM121.77 30.4717C122.087 29.8511 122.399 29.2373 122.753 28.6827C122.918 28.4254 123.185 28.2476 123.442 28.0773H123.442C123.516 28.0284 123.589 27.98 123.658 27.9305C124.523 29.2766 123.669 30.7186 122.932 31.9604C122.847 32.1045 122.763 32.2459 122.684 32.3841C122.451 32.7894 122.224 33.2116 121.994 33.6375C121.504 34.5473 121.005 35.4735 120.426 36.2877C119.016 38.272 115.947 36.1253 115.856 34.0859C115.786 32.5247 116.894 33.2042 117.605 33.7873C118.337 34.3879 118.683 34.5374 119.45 33.8815C120.481 32.9995 121.133 31.7214 121.77 30.4717ZM113.463 24.9729C113.774 22.9253 112.37 24.5153 112.069 25.4571C111.699 26.619 111.392 28.2602 111.953 29.4133C112.982 31.5298 115.885 30.5211 117.282 29.3968C117.936 28.8695 118.854 27.7713 118.823 26.8561C118.769 25.2635 117.54 26.2184 116.784 26.8056H116.784C116.688 26.8805 116.599 26.9495 116.521 27.0063C116.49 27.0293 116.457 27.0538 116.422 27.0795C115.721 27.5966 114.328 28.6241 113.511 28.1157C112.761 27.6487 113.062 26.5397 113.298 25.6672C113.369 25.4069 113.434 25.1676 113.463 24.9729ZM117.616 16.7151C119.273 16.3856 121.408 16.5554 122.85 17.4937C124.708 18.7023 122.265 19.5726 121.207 19.6809C119.926 19.8114 118.288 19.8979 117.111 19.2703C115.444 18.3808 116 17.0369 117.616 16.7151ZM98.6929 13.6459C97.4257 13.4 95.6572 14.0387 96.5295 15.5435C97.1806 16.6666 98.7847 17.0445 100.04 17.3404C100.193 17.3762 100.34 17.4111 100.48 17.4457C101.876 17.7917 102.566 17.2816 102.086 15.7444C101.62 14.2567 100.059 13.9114 98.6929 13.6459ZM125.154 29.3856C125.271 28.8994 125.951 27.0718 126.41 28.4135C126.481 28.6196 126.49 28.9222 126.499 29.2452C126.522 30.0616 126.549 31.0105 127.589 30.8726C128.126 30.8017 128.38 30.2638 128.616 29.7655C128.732 29.5186 128.845 29.2813 128.984 29.1152C130.403 27.4288 129.968 30.6185 129.597 31.4169C128.78 33.1763 126.494 34.3886 125.36 32.1564C124.938 31.3262 124.94 30.2782 125.154 29.3856ZM130.494 22.2928H130.495C131.152 23.0558 132.249 24.328 132.969 23.4065C133.671 22.5071 132.463 21.1133 131.86 20.4184C131.834 20.3883 131.809 20.3594 131.785 20.3319C131.768 20.3119 131.75 20.2907 131.731 20.2682C131.186 19.6339 129.789 18.0078 129.081 19.2258C128.637 19.9884 129.677 21.4257 130.171 21.9304C130.259 22.0201 130.369 22.1472 130.494 22.2928ZM111.167 37.2603C110.488 36.4817 110.559 35.0387 110.944 34.1378C111.257 33.4042 111.781 34.3123 112.085 34.838C112.159 34.9663 112.22 35.0716 112.262 35.125C112.397 35.2997 112.593 35.4616 112.794 35.628C113.212 35.9745 113.653 36.3398 113.624 36.8764C113.553 38.1874 111.764 37.9442 111.167 37.2603Z" fill="#36392E"/>
<path fill-rule="evenodd" clip-rule="evenodd" d="M170.328 27.5709C169.582 27.369 168.838 27.167 168.097 26.9591C166.374 26.4752 168.002 25.3861 169.026 25.4628C169.818 25.5218 170.592 25.7992 171.353 26.0718C171.69 26.1922 172.024 26.3118 172.356 26.4114C175.667 27.4043 178.737 28.4901 181.831 30.0313C182.293 30.2614 184.325 31.3521 182.981 31.8351C182.275 32.0887 180.854 31.3255 179.859 30.7911C179.541 30.6203 179.266 30.473 179.073 30.3894C176.264 29.1802 173.288 28.3735 170.328 27.5709ZM198.452 52.0766C187.374 45.2143 176.342 38.493 163.813 34.5617C163.16 34.357 162.957 33.7754 163.299 33.1993C163.66 32.592 164.354 32.6142 164.969 32.634L165.022 32.6357C166.643 32.6869 168.226 33.198 169.759 33.6931L169.954 33.7561C173.46 34.8865 176.799 36.4545 180.091 38.0935C185.864 40.9662 191.418 44.4419 196.51 48.394C197.574 49.2198 198.666 49.8891 199.823 50.5644C199.895 50.6064 199.97 50.6492 200.046 50.6932C200.761 51.1027 201.647 51.6104 201.905 52.4068C202.63 54.6482 198.971 52.3984 198.452 52.0766ZM19.5668 50.0369C15.5184 53.1817 11.5623 56.456 7.90231 60.0449C6.59922 61.3228 5.51322 62.7844 4.42821 64.2451C3.93138 64.914 3.43455 65.5826 2.91717 66.2332C2.86172 66.3029 2.80058 66.3844 2.73399 66.4731C2.31756 67.0273 1.69458 67.8566 1.01488 67.7649C0.149948 67.6487 -0.024897 66.1612 0.00267992 65.5117C0.0971446 63.2965 2.12331 61.1572 3.56823 59.6319C5.19363 57.9168 6.93143 56.2454 8.70611 54.6838C10.66 52.9644 12.7805 51.4866 14.9414 50.0399C15.731 49.5112 16.5084 48.9518 17.2874 48.3915C18.6011 47.4465 19.9186 46.4989 21.3041 45.6909C22.3436 45.0848 24.0695 44.8542 23.5038 46.6786C23.1734 47.7444 21.8755 48.5514 20.7429 49.2556C20.304 49.5285 19.8901 49.7858 19.5668 50.0369ZM5.06639 45.677C7.34533 44.9686 9.45841 43.869 11.5715 42.7693C12.9484 42.0527 14.3255 41.3362 15.7481 40.7281C16.7712 40.2907 17.8092 39.8905 18.8469 39.4903C19.7805 39.1302 20.7137 38.7703 21.6363 38.3835C21.7232 38.3469 21.8173 38.3123 21.9141 38.2764C22.3973 38.098 22.9456 37.8953 23.011 37.3268C23.1006 36.5398 22.6404 36.5633 22.0782 36.592H22.078C22.0418 36.5937 22.0052 36.5957 21.968 36.5972C20.6867 36.6547 19.3319 37.2218 18.0516 37.7576C17.5231 37.9791 17.0069 38.1951 16.514 38.3676C16.0751 38.5214 15.6357 38.6714 15.1966 38.8212C13.8212 39.2908 12.4498 39.7592 11.1083 40.3334C9.32349 41.0972 7.50079 41.8874 5.89345 42.9868C5.83652 43.0259 5.77711 43.0657 5.71621 43.1067C5.18398 43.4643 4.53986 43.8974 4.30964 44.4881C4.07917 45.0779 4.20616 45.9447 5.06639 45.677Z" fill="#36392E"/>
<path fill-rule="evenodd" clip-rule="evenodd" d="M99.4177 30.484C99.6331 29.8533 102.297 22.9567 101.254 22.7488C100.15 22.5281 98.6736 26.5295 98.3532 27.2525C97.1702 29.9225 96.4696 32.7872 95.9208 35.6512C95.5383 37.6454 95.2024 39.6883 95.3363 41.7269C95.4393 43.2938 96.0874 43.531 97.1553 44.4911C97.1553 39.732 97.8797 34.9885 99.4177 30.484Z" fill="#36392E"/>
</svg>
