<svg width="563" height="454" viewBox="0 0 563 454" fill="none" xmlns="http://www.w3.org/2000/svg">
<path fill-rule="evenodd" clip-rule="evenodd" d="M257.413 50.2696L257.277 50.2008L257.125 50.2227L257.195 50.6999C257.125 50.2227 257.125 50.2227 257.125 50.2227H257.124L257.122 50.2233L257.114 50.2246L257.084 50.2291C257.057 50.233 257.017 50.2394 256.967 50.2471C256.864 50.2632 256.715 50.2876 256.525 50.3204C256.144 50.3854 255.599 50.4844 254.937 50.6201C253.614 50.8909 251.823 51.3089 249.951 51.8948C248.081 52.4807 246.116 53.2396 244.453 54.1979C242.802 55.1497 241.388 56.3337 240.711 57.7981C239.434 60.5565 238.827 65.227 239.156 69.1957C239.32 71.183 239.724 73.0455 240.429 74.427C241.136 75.8104 242.203 76.804 243.704 76.804C245.176 76.804 246.568 75.7184 247.832 74.2983C249.12 72.8526 250.39 70.9264 251.605 69.0015C251.87 68.5815 252.133 68.1622 252.392 67.7474C253.333 66.2431 254.237 64.7967 255.105 63.603C255.657 62.8435 256.183 62.2036 256.678 61.727C257.18 61.244 257.615 60.9656 257.981 60.8691C259.941 60.3533 262.679 59.3809 264.913 58.5435C266.033 58.1236 267.032 57.7358 267.751 57.4528C268.11 57.3113 268.399 57.1962 268.599 57.1158C268.699 57.0759 268.776 57.045 268.829 57.0238L268.889 56.9994L268.904 56.9929L268.908 56.9916L268.909 56.991H268.91C268.91 56.991 268.91 56.991 268.728 56.544L268.91 56.991L269.892 56.5929L268.946 56.1138L257.413 50.2696ZM256.688 51.271C256.873 51.2395 257.017 51.2157 257.115 51.2002L267.558 56.4919L267.397 56.555C266.682 56.8366 265.688 57.2225 264.575 57.6399C262.341 58.4773 259.644 59.4343 257.736 59.9366C257.135 60.0941 256.558 60.5044 256.01 61.0312C255.455 61.5643 254.892 62.2557 254.325 63.0358C253.436 64.2597 252.506 65.7453 251.563 67.2535V67.2541C251.306 67.6651 251.048 68.0773 250.79 68.4864C249.573 70.4145 248.34 72.277 247.112 73.6571C245.86 75.0624 244.721 75.8393 243.704 75.8393C242.716 75.8393 241.912 75.2084 241.288 73.9877C240.664 72.7651 240.277 71.0447 240.117 69.1166C239.797 65.2546 240.401 60.7643 241.586 58.2033C242.139 57.0071 243.347 55.9485 244.935 55.0333C246.512 54.1239 248.404 53.3901 250.239 52.8158C252.071 52.2421 253.829 51.8318 255.131 51.5649C255.781 51.4318 256.316 51.3346 256.688 51.271ZM455.812 135.471C453.943 140.079 451.99 144.891 451.43 149.418C458.457 153.725 462.365 160.02 466.538 166.742L466.54 166.744C467.021 167.52 467.507 168.301 468 169.086C470.803 173.539 473.043 178.119 475.3 182.734C476.74 185.679 478.187 188.638 479.792 191.586C487.804 206.317 501.956 251.648 504.072 258.958C505.746 264.734 508.135 270.452 510.486 276.079C511.045 277.418 511.603 278.752 512.147 280.081C512.526 281.003 512.538 282.149 512.549 283.253C512.567 285.066 512.584 286.766 514.223 287.175C515.731 287.552 519.672 285.661 523 284.064H523C524.947 283.131 526.683 282.297 527.598 282.078C535.148 280.276 543.344 281.191 551.069 282.053L551.293 282.078C551.772 279.26 550.687 272.327 549.678 269.58C549.15 268.143 548.632 266.554 548.098 264.913C546.826 261.01 545.459 256.812 543.632 253.666C542.01 250.874 537.618 242.261 532.386 232.001L532.385 232C524.213 215.973 513.988 195.923 509.062 187.743C505.889 182.474 502.657 177.633 499.507 172.914C492.373 162.227 485.656 152.166 480.988 139.183C477.385 129.168 474.612 118.438 471.981 108.119C470.996 104.255 470.209 100.438 469.425 96.6337V96.6331C468.306 91.2082 467.193 85.8104 465.52 80.3399C465.068 80.6422 464.29 80.8146 463.487 80.9921C462.436 81.2243 461.343 81.4661 460.88 82.0217C459.853 83.2572 459.855 83.2585 460.126 83.3884C460.315 83.4797 460.637 83.6354 460.826 84.3267C461.172 85.5898 461.774 86.7198 462.383 87.8633C463.178 89.3567 463.986 90.8725 464.251 92.7376C464.855 96.9656 464.001 101.082 463.147 105.201C462.723 107.251 462.298 109.301 462.052 111.365C461.275 117.907 460.275 123.267 458.155 129.406C457.481 131.356 456.655 133.393 455.812 135.471ZM290.133 182.78C285.317 184.551 280.568 186.297 275.95 188.063C275.95 188.063 289.252 202.097 297.971 206.427C298.812 206.845 299.759 207.34 300.773 207.87C304.696 209.922 309.624 212.499 313.312 213.144C317.968 213.957 335.121 215.818 339.523 213.851C341.417 213.006 346.337 209.165 347.955 207.871C348.817 207.181 349.327 205.843 349.834 204.513C350.27 203.371 350.703 202.235 351.355 201.521C357.137 195.181 363.532 190.123 371.118 186.297L371.496 186.107C374.76 184.463 378.909 182.372 381.229 179.557C383.923 176.288 384.622 171.491 384.886 167.429C385.164 163.138 385.189 158.814 385.215 154.488V154.487C385.252 147.797 385.291 141.099 386.268 134.505C387.727 124.667 390.655 114.115 395.075 105.196C397.35 100.608 400.153 96.2761 403.348 92.2791C404.128 91.3047 405.048 90.5066 405.964 89.7142H405.964C406.723 89.057 407.477 88.4035 408.144 87.6562C409.659 85.9532 409.651 85.3345 409.625 83.2668C409.621 82.9671 409.617 82.6372 409.617 82.2693C402.734 87.069 395.06 89.0865 387.059 91.1902C386.47 91.3452 385.879 91.5009 385.287 91.6571C383.94 92.0147 382.579 92.3511 381.215 92.6874C373.683 94.5487 366.076 96.4286 360.3 101.923C356.648 105.397 354.767 106.453 349.829 106.951C348.218 107.113 346.601 107.249 344.985 107.385H344.984C341.521 107.676 338.054 107.966 334.622 108.519C325.578 109.974 316.894 112.779 308.206 115.585L307.657 115.762C289.734 121.55 274.066 131.228 258.527 141.451C252.653 145.315 247.341 149.893 242.034 154.468H242.033C241.048 155.318 240.064 156.167 239.075 157.011C238.113 157.833 237.075 158.701 235.989 159.61L235.988 159.611C228.447 165.918 218.564 174.187 215.24 182.558C216.366 182.456 217.524 182.342 218.709 182.226C228.539 181.26 240.098 180.123 249.169 184.212C249.939 175.72 255.165 165.664 260.788 159.564C265.853 154.071 272.07 148.512 278.314 144.159C289.715 136.21 303.916 133.585 317.641 131.048C321.534 130.328 325.389 129.615 329.13 128.79C330.458 128.498 331.784 128.212 333.105 127.927C340.929 126.24 348.635 124.577 356.1 121.621C358.443 120.693 364.256 121.623 363.76 122.834C362.777 125.229 362.23 127.772 361.686 130.309L361.671 130.378C360.657 135.105 359.801 139.863 358.946 144.622C358.057 149.568 357.168 154.515 356.1 159.429C355.773 160.937 352.584 155.88 352.456 154.051C334.158 166.59 311.497 174.924 290.133 182.78ZM421.584 251.071C416.067 241.49 407.987 233.196 399.985 225.566C402.071 224.751 404.059 220.693 405.198 218.368C405.285 218.189 405.367 218.021 405.445 217.865C406.938 214.847 408.675 211.789 410.388 208.894C412.261 205.726 416.172 196.929 419.592 189.235C421.896 184.052 423.978 179.369 425.064 177.245C428.26 170.997 449.581 107.92 449.106 101.383C449.096 101.239 449.085 101.1 449.075 100.965C448.88 98.3509 448.8 97.2698 450.277 95.1667C451.519 93.3968 453.624 91.1131 455.605 88.9644C456.865 87.597 458.075 86.2838 458.981 85.193C459.948 90.4513 457.949 97.1283 456.144 103.162C455.42 105.58 454.728 107.894 454.269 109.973C453.23 114.682 452.065 119.323 450.9 123.968C450.182 126.829 449.464 129.691 448.774 132.572C448.258 134.726 447.47 136.732 446.682 138.736V138.737C446.098 140.22 445.515 141.703 445.042 143.247C444.432 145.243 443.982 147.281 443.532 149.322V149.323C443.063 151.448 442.594 153.576 441.942 155.662C441.475 157.154 440.976 158.636 440.478 160.113L440.477 160.116C438.258 166.706 436.064 173.221 436.879 180.307C437.748 187.852 438.787 195.986 441.261 203.152C444.197 211.655 446.958 219.685 447.619 228.747C448.246 237.365 446.153 246.338 443.893 254.597C443.092 257.521 437.051 278.726 435.22 278.422C434.163 271.132 429.623 263.958 425.4 257.283L425.399 257.282C424.054 255.157 422.742 253.083 421.584 251.071Z" fill="#75A342"/>
<path fill-rule="evenodd" clip-rule="evenodd" d="M215.085 238.011C215.81 238.259 216.077 237.79 215.886 236.604C215.162 236.281 214.894 236.749 215.085 238.011ZM466.523 57.4019C465.376 57.5074 466.024 58.6413 466.706 59.0657C466.645 58.5114 466.585 57.957 466.523 57.4019ZM399.616 224.147C400.3 223.623 400.056 223.178 398.885 222.818C398.22 223.36 398.464 223.804 399.616 224.147ZM140.273 221.299C136.552 220.701 133.67 215.061 130.602 216.249C126.762 217.735 123.248 224.444 120.624 227.464C122.647 229.09 124.885 230.551 127.027 232.015C129.236 233.526 128.669 234.06 130.895 232.265C132.517 230.959 133.815 228.607 135.16 227.003C136.774 225.074 138.826 223.359 140.273 221.299ZM226.005 434.954C226.664 435.01 227.111 420.143 227.644 418.097C228.831 413.555 230.901 408.983 233.191 404.9C234.169 403.157 235.915 400.909 236.657 399.12C237.799 396.364 235.951 394.482 235.429 391.318C234.318 384.571 235.791 378.609 238.154 372.354C233.803 371.365 229.608 369.736 225.185 369.057C225.185 375.027 224.594 380.031 222.134 385.506C221.518 386.878 220.277 387.992 220.808 389.67C220.981 390.216 222.5 390.571 222.866 391.074C224.914 393.904 225.244 396.154 225.356 399.684C225.725 411.54 224.43 423.18 226.005 434.954ZM195.198 229.852C197.602 231.885 205.277 217.539 207.917 217.621C213.529 217.796 205.556 231.9 205.068 233.625C207.313 232.825 209.436 227.741 210.636 225.771C211.665 224.083 215.449 215.791 217.61 215.279C221.825 214.282 219.955 221.948 219.365 223.746C218.039 227.791 216.742 231.793 215.584 235.891C218.047 234.547 219.873 226.502 220.979 223.873C222.506 220.239 223.729 216.255 226.111 213.077C227.737 210.908 230.412 207.85 233.346 207.698C236.913 207.511 238.253 211.314 241.468 212.025C241.896 203.922 241.099 195.778 242.046 187.699C235.703 187.832 229.325 188.126 223.061 189.206C219.535 189.815 217.193 189.791 215.455 193.091C214.109 195.648 213.057 198.321 211.785 200.916C206.896 210.891 201.669 220.798 195.198 229.852ZM114.942 199.611C110.311 204.366 106.123 209.282 101.76 214.27C97.3848 219.268 91.3008 222.475 87.1678 227.637C83.3917 232.355 80.5571 237.785 76.9573 242.656C72.9722 248.049 69.6739 254.088 66.2805 259.875C69.7781 260.515 70.6405 260.587 72.906 257.988C74.7818 255.836 76.3174 253.246 78.2106 251.077C82.6124 246.032 86.8559 241.923 92.356 237.969C97.7321 234.107 104.657 230.726 111.087 228.76C113.594 227.994 114.516 228.187 115.904 225.894C116.9 224.251 117.264 222.192 118.275 220.509C120.457 216.876 123.905 214.835 127.332 212.532C123.459 207.97 118.817 204.243 114.942 199.611ZM424.252 61.1842C422.982 62.1348 422.812 65.7054 422.228 67.1885C421.157 69.9128 419.638 72.4693 418.305 75.0707C415.969 79.6383 414.028 84.7512 414.114 89.9901C414.201 95.3757 418.375 98.4679 423.391 99.4442C428.903 100.518 433.133 98.3502 437.977 96.0324C442.784 93.7312 446.751 90.0956 450.575 86.424C453.6 83.5183 455.53 78.7861 458.96 77.1558C462.216 75.6077 466.215 74.2385 467.194 69.6446C467.864 66.5068 466.588 66.8747 463.837 67.5442C460.909 68.2548 458.789 70.1373 456.072 71.1483C457.584 67.7011 457.948 64.8713 456.086 61.4936C455.014 59.5481 453.003 56.3286 450.566 56.2514C448.961 56.1999 447.043 57.9557 445.563 58.5204C443.751 59.2111 441.745 59.5288 439.881 60.0427C434.355 61.5695 429.927 61.8627 424.252 61.1842ZM435.139 278.301C436.993 278.609 442.962 257.473 443.782 254.473C446.037 246.214 448.12 237.235 447.495 228.621C446.835 219.535 444.033 211.557 441.16 203.021C438.734 195.82 437.676 187.741 436.793 180.175C435.781 171.487 439.291 163.683 441.838 155.527C443.014 151.76 443.632 147.904 444.666 144.115C445.753 140.128 447.673 136.512 448.646 132.435C450.45 124.873 452.444 117.442 454.121 109.833C455.716 102.596 460.073 93.9801 458.726 86.6291C456.457 89.3734 453.714 91.7665 451.473 94.4625C449.187 97.2132 449.981 97.4286 450.258 101.242C450.714 107.54 449.391 114.855 447.925 120.972C444.867 133.728 439.461 145.312 435.516 157.686C433.488 164.049 432.682 171.223 429.813 177.229C427.241 182.613 423.683 187.4 420.955 192.603C417.965 198.306 414.464 203.69 411.195 209.237C409.646 211.865 408.036 214.438 406.661 217.164C405.503 219.462 404.22 225.002 401.952 225.891C409.936 233.531 416.049 241.355 421.552 250.948C426.341 259.297 433.748 268.668 435.139 278.301ZM451.752 149.344C459.289 153.966 463.065 160.755 467.691 168.042C472.305 175.312 476.625 182.754 480.731 190.321C488.901 205.374 494.913 220.326 499.428 236.879C501.464 244.345 504.427 251.595 506.543 258.904C508.498 265.658 509.133 272.531 511.947 279.003C512.724 280.79 513.324 284.742 515.385 285.373C517.812 286.117 524.325 282.785 526.78 282.172C534.754 280.182 543.069 279.781 551.245 280.694C551.723 277.878 548.49 272.322 547.482 269.576C545.817 265.04 544.32 260.202 542.088 255.913C538.242 248.527 533.796 241.342 529.347 234.382C524.633 227.008 520.756 219.097 515.935 211.906C513.71 208.587 510.53 204.109 509.067 200.419C508.344 198.597 508.118 197.892 507.246 196.346C506.485 194.995 505.597 193.663 504.793 192.327C494.657 175.483 487.17 158.389 480.655 140.028C477.088 129.979 474.106 119.862 471.283 109.576C468.63 99.9105 468.128 89.9419 465.181 80.3084C463.447 81.4699 460.539 81.3072 460.592 83.6103C460.603 84.0624 463.034 87.287 463.3 87.9135C463.839 89.1849 464.169 90.5278 464.415 91.8822C465.612 98.4647 463.209 104.85 462.361 111.315C461.54 117.572 460.8 122.693 458.666 128.564C456.357 134.92 452.577 142.681 451.752 149.344ZM278.209 188.239C285.575 194.644 292.399 201.833 301.119 206.16C305.214 208.192 308.47 211.073 313.111 211.882C317.77 212.696 322.577 212.236 327.253 211.903C332.033 211.563 336.357 211.507 340.76 209.543C342.654 208.698 345.534 207.88 347.152 206.588C348.754 205.306 349.763 203.23 351.173 201.686C356.955 195.351 363.351 190.298 370.935 186.475C379.39 182.213 384.068 177.375 384.703 167.624C385.413 156.707 384.476 145.577 386.085 134.728C387.547 124.885 390.467 114.363 394.893 105.446C397.167 100.862 399.97 96.534 403.165 92.5402C404.59 90.7593 406.491 89.5682 407.96 87.9212C409.695 85.9738 409.433 85.4458 409.433 82.5394C402.044 87.6864 393.744 89.6325 385.104 91.9189C376.344 94.2387 366.915 95.7147 360.117 102.176C356.466 105.647 354.585 106.702 349.647 107.198C344.585 107.708 339.475 107.956 334.44 108.765C325.203 110.251 316.35 113.14 307.477 116.002C289.554 121.785 273.886 131.455 258.347 141.668C251.38 146.248 245.213 151.824 238.897 157.214C231.255 163.736 220.98 172.472 217.178 182.039C227.649 181.093 238.281 178.07 248.442 182.645C249.214 174.14 254.982 165.866 260.609 159.766C265.6 154.357 271.702 148.952 277.808 144.601C292.419 134.189 311.905 131.49 328.915 127.743C338.11 125.717 346.681 124.138 355.412 120.683C357.624 119.808 364.074 115.894 365.292 118.226C366.07 119.716 364.074 121.857 363.577 123.068C362.719 125.157 362.23 127.329 361.732 129.537C359.488 139.496 358.09 149.646 355.918 159.63C355.599 161.101 355.173 167.752 352.53 166.848C350.768 166.246 352.402 156.091 352.274 154.256C329.849 169.613 303.322 178.65 278.209 188.239ZM303.415 359.668C298.432 359.882 293.356 362.565 288.525 363.785C282.013 365.43 275.178 367.105 269.149 370.055C265.941 371.626 265.91 372.544 266.789 376.124C267.479 378.937 268.276 381.662 268.856 384.526C270.297 391.634 271.908 398.652 273.702 405.677C292.263 390.188 315.956 381.428 339.11 375.46C342.386 374.616 345.723 374.356 349.044 373.778C351.953 373.273 355.267 373.634 358.025 373.062C359.797 372.693 361.399 371.5 363.21 371.08C367.127 370.172 371.796 370.1 375.566 368.705C380.611 366.841 386.254 364.375 391.245 361.835C396.694 359.058 401.079 357.031 402.188 351.062C403.067 346.327 405.274 341.905 405.96 337.257C406.852 331.198 405.744 325.813 405.371 319.756C404.506 305.738 402.467 291.569 398.902 277.897C395.484 264.788 393.045 251.368 390.69 238.078C390.23 235.488 389.313 233.102 388.713 230.556C387.712 226.322 385.721 227.408 381.877 227.657C374.686 228.12 367.083 225.253 361.112 221.381C358.292 219.554 354.728 215.375 351.504 214.477C348.632 213.677 345.7 217.556 342.958 218.857C336.407 221.962 328.373 222.803 321.222 223.293C305.623 224.361 293.802 214.209 283.173 203.883C276.037 211.863 268.305 219.45 260.021 226.229C253.193 231.816 247.39 239.072 241.707 245.724C236.369 251.976 232.051 261.699 224.801 266.078C220.573 268.633 217.421 267.016 213.339 264.448C210.098 262.408 206.525 261.296 203.263 259.414C188.2 250.722 173.976 240.905 159.258 231.69C156.04 229.675 150.981 224.935 147.193 224.594C144.387 224.341 144.608 225.043 142.985 227.366C141.412 229.618 139.818 231.854 138.257 234.114C132.137 242.971 125.615 252.114 120.656 261.679C131.452 259.104 141.658 258.708 152.283 260.229C162.056 261.629 174.534 263.318 183.187 268.601C186.883 270.858 190.513 273.393 194.199 275.958C198.827 279.179 202.42 283.682 207.543 286.111C211.961 288.205 216.743 289.153 221.335 290.714C226.496 292.466 233.816 295.732 239.297 294.313C243.966 293.104 247.877 288.963 251.392 286.11C255.966 282.399 261.524 279.861 266.152 276.401C274.354 270.271 282.916 265.032 291.738 259.553C302.271 253.01 312.377 245.489 323.31 239.729C325.46 238.596 327.586 237.811 329.586 236.457C331.467 235.184 332.822 232.856 335.085 234.516C337.098 235.99 336.219 238.706 335.61 240.598C335.04 242.371 334.512 242.938 334.879 244.485C335.222 245.925 337.437 248.133 338.198 249.54C341.791 256.186 344.358 263.32 347.801 270.042C351.151 276.578 354.931 282.867 358.046 289.528C364.195 302.674 372.782 314.325 378.228 327.893C375.72 328.921 375.407 326.806 373.462 326.606C371.335 326.386 372.105 326.791 369.993 328.313C367.162 330.356 364.125 331.647 361.086 333.24C354.321 336.787 347.394 340.962 340.093 343.413C327.554 347.625 315.998 355.067 303.415 359.668ZM519.176 298.288C518.743 301.4 518.186 304.487 517.733 307.593C517.413 309.789 516.184 312.97 516.463 315.143C519.694 313.616 523.17 308.504 525.664 314.097C527.15 317.428 525.287 324.04 524.849 327.624C528.499 326.884 527.675 317.916 533.508 320.811C537.994 323.036 534.855 334.345 538.363 335.447C540.785 331.627 540.386 322.96 541.179 318.414C541.55 316.282 541.018 313.419 543.513 313.28C545.674 313.16 547.384 316.292 548.407 317.723C549.381 312.526 552.009 307.914 550.862 303.13C550.152 300.171 549.426 297.209 548.668 294.261C548.221 292.526 547.746 287.199 546.237 286.006C543.429 283.786 533.168 287.739 530.064 288.631C527.234 289.444 523.625 290.215 521.02 291.587C518.284 293.028 519.123 295.103 519.176 298.288ZM428.252 119.431C432.454 118.971 436.096 116.425 439.321 113.769C444.605 109.419 445.408 106.011 446.412 99.3065C439.634 102.61 434.628 105.343 426.98 105.481C418.226 105.638 413.923 100.505 409.898 93.4425C408.818 95.0882 407.277 96.8344 406.488 98.6383C405.493 100.917 405.619 100.444 405.908 102.756C406.353 106.327 408.132 110.903 409.94 114.036C413.841 120.801 421.513 121.717 428.252 119.431ZM255.224 391.216H263.172C262.716 388.303 262.26 385.392 261.804 382.48C261.407 379.938 262.067 376.364 259.57 375.921C257.501 375.555 255.449 377.847 253.344 377.642C250.943 377.407 249.562 375.685 246.778 376.378C242.815 377.366 243.608 381.706 243.548 385.347C243.526 386.777 242.976 388.928 243.422 390.319C244.201 392.745 243.551 391.777 245.963 392.013C248.794 392.291 252.308 391.373 255.224 391.216ZM452.253 40.4987C455.164 40.9619 462.705 47.1581 464.833 45.6802C467.723 43.6745 459.416 38.1332 457.713 37.261C449.395 32.9976 433.836 36.3663 428.244 44.1502C431.909 44.5065 436.387 41.1497 440.146 40.598C444.174 40.0071 448.206 40.5087 452.253 40.4987ZM450.223 200.862C452.594 210.414 456.85 220.65 456.825 230.58C456.798 240.901 454.519 250.268 450.342 259.718C448.253 264.446 446.382 269.226 444.008 273.823C442.91 275.952 441.898 278.561 440.378 280.417C438.503 282.707 437.921 282.538 435.691 280.72C434.695 283.269 433.649 285.896 430.262 284.183C427.822 282.948 427.874 279.889 427.075 277.616C424.935 271.52 420.359 266.263 417.128 260.71C413.815 255.017 411.02 248.893 407.355 243.42C405.591 240.785 403.488 238.332 401.604 235.774C400.174 233.835 397.993 229.35 396.008 228.212C395.745 230.769 398.471 234.491 399.479 236.988C400.801 240.266 401.936 243.636 402.89 247.04C404.744 253.648 405.864 260.555 407.275 267.274C409.799 279.284 412.775 291.217 414.464 303.407C416.035 314.748 416.453 326.466 415.259 337.857C414.747 342.75 411.879 346.888 409.945 351.344C407.317 357.401 404.123 361.179 398.843 365.476C389.255 373.279 378.64 377.949 366.963 381.432C364.784 382.082 362.76 381.799 360.717 382.24C358.424 382.733 356.6 383.902 354.107 384.292C347.674 385.297 341.131 386.48 334.921 388.304C330.026 389.742 325.192 391.239 320.349 392.733C316.659 393.872 312.112 394.93 308.56 396.608C299.797 400.748 291.577 405.605 283.445 410.75C281.062 412.26 279.303 413.174 277.545 415.407C275.643 417.823 275.918 419.53 274.881 422.285C273.914 424.857 272.225 426.305 269.931 424.167C267.787 422.169 268.634 417.953 268.46 415.481C268.198 411.753 265.989 397.498 263.423 396.307C261.57 395.446 256.153 397.296 253.907 397.543C250.995 397.864 248.372 397.856 245.473 397.458C246.431 401.449 242.931 406.846 241.461 410.354C238.954 416.339 237.003 422.168 235.964 428.538C235.257 432.88 235.484 437.24 234.817 441.633C234.129 446.167 235.171 453.277 229.014 453.957C219.239 455.037 216.746 435.48 215.635 428.922C213.89 418.636 215.271 408.501 216.3 398.161C216.384 397.323 216.809 393.638 216.431 392.97C216.121 392.425 213.373 391.485 213.019 391.234C209.921 389.031 211.182 387.86 212.105 384.58C213.867 378.312 213.356 370.479 217.59 364.998C220.829 360.804 228.1 363.352 232.289 364.484C235.411 365.327 238.496 366.463 241.53 367.587C243.628 368.364 245.97 370.689 247.807 371.064C251.47 371.812 254.17 367.133 256.903 365.475C261.834 362.486 266.977 359.738 272.29 357.734C282.052 354.051 292.154 351.936 302.169 348.836C308.302 346.939 314.357 344.865 320.183 342.123C324.487 340.099 328.828 337.247 333.484 335.875C339.349 334.146 345.302 331.744 351.027 329.355C357.117 326.815 363.779 325.186 370.029 323.128C357.018 304.079 345.9 283.704 336.964 262.42C335.934 259.966 334.944 257.498 334.033 254.997C333.568 253.725 332.426 248.018 331.217 247.212C329.018 245.75 320.183 252.377 317.722 253.991C308.803 259.834 300.25 266.221 290.958 271.532C282.912 276.131 275.32 281.465 267.625 286.398C263.387 289.114 259.446 292.578 255.136 295.322C250.839 298.057 245.782 303.152 240.69 304.333C238.791 304.775 235.572 304.236 233.652 304.08C230.946 303.86 227.925 303.617 225.292 302.865C220.131 301.392 214.679 299.718 209.636 297.883C200.57 294.587 193.543 286.453 185.371 281.431C175.521 275.378 164.362 273.87 153.353 270.523C141.308 266.863 127.948 266.465 115.235 267.415C115.235 255.814 120.834 247.113 126.944 237.592C122.543 234.703 120.687 232.902 115.761 235.575C112.107 237.559 108.738 239.342 105.348 241.559C101.667 243.968 97.7481 245.816 94.0814 248.457C90.0963 251.328 86.6103 254.374 82.93 257.587C80.1623 260.004 77.0106 262.201 74.1156 264.385C71.2565 266.542 68.3454 266.23 64.6895 264.76C63.6111 264.325 60.2441 262.811 59.6743 262.082C58.5258 260.611 59.3753 259.586 60.3296 257.646C62.5359 253.159 65.3551 248.604 68.2348 244.501C70.8051 240.839 74.1413 237.781 76.8331 234.209C79.3887 230.821 81.2156 226.886 84.1756 223.815C87.4861 220.38 91.412 217.623 94.538 213.963C96.0961 212.138 97.8722 210.192 97.9957 208.037C98.0902 206.384 96.2504 204.784 96.2331 203.598C96.1938 200.814 100.963 197.983 102.954 195.935C105.876 192.927 108.764 190.329 113.279 191.619C116.593 192.566 121.58 196.744 124.049 199.172C127.157 202.229 129.732 205.766 132.937 208.79C134.739 210.49 136.66 212.042 138.522 213.672C139.622 214.635 141.368 217.399 142.586 217.962C143.674 218.467 144.737 217.99 146.259 217.948C145.574 217.966 149.044 218.55 148.859 218.5C150.502 218.94 152.123 219.417 153.742 219.94C160.395 222.09 166.526 225.718 172.529 229.33C187.778 238.504 202.088 248.282 217.023 258.061C221.447 260.956 222.663 260.75 226.059 256.605C229.229 252.737 231.857 248.439 234.834 244.429C239.741 237.822 245.273 231.396 251.065 225.525C257.029 219.483 263.903 214.424 270.276 208.833C272.046 207.281 279.341 202.039 278.88 200.073C278.62 198.963 276.262 197.089 275.515 195.953C274.401 194.259 273.245 192.347 272.423 190.478C267.582 179.475 280.146 178.721 287.499 175.321C296.474 171.17 305.36 166.584 314.534 162.877C319.141 161.017 323.753 159.317 328.404 157.592C332.685 156.004 336.583 153.429 340.796 151.676C343.9 150.385 350.641 149.893 352.709 147.146C353.93 145.526 353.404 140.409 353.618 138.522C353.972 135.389 354.494 132.274 355.313 129.228C353.776 128.95 350.889 130.639 349.49 131.289C346.797 132.539 344.451 133.77 341.464 134.557C335.07 136.238 328.376 136.429 322.077 138.254C312.49 141.033 302.267 142.64 292.89 146.628C282.092 151.217 272.796 159.291 265.211 168.005C261.296 172.503 258.183 176.828 255.512 182.167C254.82 183.55 254 188.184 252.935 189.149C251.581 190.377 248.006 189.085 246.466 188.831C246.466 192.92 246.552 197.016 246.405 201.098C246.249 205.407 247.026 212.018 245.535 215.993C244.136 219.725 241.525 218.952 238.76 217.096C235.084 214.631 233.199 213.216 229.905 217.037C224.174 223.683 222.005 234.008 218.074 241.788C216.786 244.336 213.611 249.671 211.876 244.434C210.611 240.617 212.708 235.748 211.728 231.978C210.389 234.33 206.383 241.33 203.215 241.31C198.855 241.284 200.277 234.513 200.423 231.753C197.852 234.498 190.307 243.465 188.48 236.276C187.078 230.76 190.994 225.285 193.774 220.941C197.009 215.886 200.19 210.754 203.547 205.787C206.833 200.925 209.031 195.416 212.362 190.523C209.823 190.875 204.909 190.046 206.47 186.115C207.287 184.06 209.871 184.924 211.132 183.648C212.445 182.319 213.153 178.547 213.888 176.806C217.51 168.227 222.705 161.173 228.712 154.197C239.325 141.869 252.877 132.027 266.541 123.771C282.82 113.934 299.602 107.952 317.831 103.143C326.469 100.866 335.229 99.8185 343.961 98.1772C347.586 97.4961 351.262 97.1122 354.13 94.8156C358.407 91.3902 361.226 88.8544 366.38 86.6684C370.545 84.9023 374.497 84.0875 379.041 83.3331C383.909 82.5234 389.496 83.6 394.174 82.2256C398.062 81.0821 402.593 78.5996 406.124 76.6136C407.904 75.6135 411.053 75.0502 412.013 74.1993C413.868 72.5587 415.094 68.4671 416.278 66.2637C413.349 67.0309 412.233 64.9498 411.45 62.4293C410.146 58.2374 410.133 59.6304 406.064 57.8753C403.654 56.8354 402.874 54.0602 400.964 53.075C398.916 52.0176 395.666 54.2982 393.247 53.5567C391.285 52.9553 389.367 50.8465 389.475 48.6026C389.519 47.6656 390.506 46.8346 390.524 46.0719C390.566 44.284 389.106 43.2964 389.319 41.3367C389.65 38.3035 391.191 38.816 389.883 35.5291C388.58 32.2573 389.088 31.6121 389.479 28.2209C389.588 27.2836 389.106 25.7737 389.761 24.9766C390.142 24.5108 391.539 24.4391 391.682 24.2037C392.215 23.3249 392.232 22.6029 392.339 20.9911C392.401 20.073 392.117 18.2368 393.072 17.5574C393.902 16.9673 395.079 18.064 395.805 17.7168C396.436 17.4155 396.981 15.914 398.017 15.7328C401.842 15.0634 400.675 18.9554 402.628 14.0978C403.76 11.2841 404.629 10.1323 406.658 8.53228C407.54 8.93957 408.09 8.77513 408.31 8.03732C408.606 7.50397 408.904 6.97146 409.201 6.43895C410.784 6.06419 411.012 7.25026 412.237 6.08503C414.294 4.12946 412.178 -0.201593 416.332 0.957782C419.346 1.79829 420.078 5.66268 423.231 6.59085C423.665 5.33218 423.609 1.65301 425.439 1.28076C427.303 0.90183 428.722 4.29886 429.399 5.40813C429.841 4.45411 430.57 1.59712 431.296 0.898487C433.383 -1.10886 432.752 0.835908 434.599 1.103C434.889 1.4427 435.179 1.78324 435.469 2.12378C436.435 1.65217 437.386 1.15477 438.322 0.628112C440.347 0.244998 439.625 0.454467 441.392 1.16892C442.803 1.74067 441.959 2.39422 443.675 2.75392C444.921 3.01349 445.976 1.71983 447.363 2.11626C447.766 2.29241 448.17 2.46934 448.574 2.64543C449.145 3.9133 450.022 4.13782 451.205 3.31814C452.6 3.89323 454.481 6.2044 455.966 6.12844C458.804 5.98072 458.136 2.07368 461.248 2.26482C462.402 2.33492 465.385 5.43817 466.208 6.35965C467.361 7.65254 467.035 8.76927 468.48 10.2233C470.575 12.3291 469.346 11.1998 471.345 12.153C474.324 13.5744 475.423 13.0369 476.65 16.4581C477.717 19.4337 478.316 23.1354 478.328 26.2878C478.334 28.2551 476.92 32.5937 479.649 31.6422C481.565 30.9744 481.244 26.2244 483.3 27.7143C484.863 28.8461 481.778 34.8982 481.743 36.3179C481.639 40.4027 482.291 40.7299 479.76 43.7823C478.56 45.2281 475.812 47.8919 475.203 49.7647C474.482 51.9803 476.394 55.8173 476.836 57.7962C477.792 62.091 476.985 62.9985 474.148 66.3736C473.844 66.5557 473.54 66.7383 473.235 66.9203C471.721 66.9171 471.3 67.6728 471.974 69.1848C471.371 70.8717 471.444 72.4976 470.59 74.1929C470.124 75.119 468.064 76.995 467.959 77.9115C467.773 79.5457 468.584 79.8318 469.96 81.5259C475.506 88.3566 478.046 97.2086 480.79 105.425C485.622 119.897 491.578 134.013 497.347 148.176C499.595 153.698 501.873 159 504.206 164.583C507.11 171.534 511.191 177.879 514.643 184.615C517.029 189.271 519.464 194.382 522.445 198.399C526.196 203.452 528.304 209.948 531.593 215.418C535.107 221.261 539.209 227.018 542.598 233.031C545.839 238.781 549.843 244.046 552.92 249.952C556.761 257.326 561.234 266.186 562.292 274.542C562.665 277.504 563.83 282.388 561.993 284.922C560.09 287.545 554.851 288.642 552.193 286.684C554.851 292.873 556.503 299.807 557.696 306.426C558.211 309.286 558.93 311.81 558.299 314.732C557.735 317.343 558.671 315.822 556.562 317.35C554.796 318.629 555.612 315.024 554.224 318.699C553.932 319.474 554.506 321.624 554.485 322.524C554.405 326.136 554.136 329.813 553.995 333.445C553.889 336.201 554.333 338.526 550.947 338.235C548.234 338.001 546.89 335.119 545.685 333.085C545.233 336.323 544.974 339.556 544.6 342.804C544.269 345.685 544.931 348.531 541.242 348.221C535.194 347.711 532.81 336.748 531.277 332.168C528.521 335.799 527.182 343.008 525.969 347.448C524.816 351.674 523.471 360.671 517.574 355.136C513.645 351.448 515.167 344.194 515.872 339.475C516.104 337.918 519.421 324.241 517.87 323.452C515.653 325.825 513.07 329.701 509.42 327.61C506.137 325.73 507.206 321.553 507.467 318.538C508.21 309.961 511.153 301.74 513.335 293.428C512.093 293.15 509.076 292.903 508.052 291.979C506.742 290.795 507.55 290.22 506.975 288.707C506.197 286.658 504.799 284.576 503.695 282.629C500.099 276.287 498.991 269.964 497.133 263.062C495.338 256.396 491.958 250.528 490.165 243.777C488.178 236.297 486.061 228.947 483.716 221.497C478.596 205.222 471.222 189.726 462.744 174.965C461.63 173.027 452.509 152.093 451.136 152.711C450.156 153.153 449.594 158.57 449.221 160.034C448.354 163.423 448.184 166.987 447.98 170.481C444.638 178.63 448.195 192.691 450.223 200.862Z" fill="#36392E"/>
<path fill-rule="evenodd" clip-rule="evenodd" d="M141.979 173.274C145.383 174.087 146.601 166.149 146.982 163.692C147.599 159.708 148.306 156.282 150.452 152.798C151.496 151.103 152.743 149.362 154.097 147.9C154.886 147.05 156.866 145.941 157.279 145.029C158.422 142.505 157.094 136.161 157.109 133.322C157.119 131.499 155.927 123.014 158.067 122.422C160.847 121.652 161.571 129.39 161.879 131.131C162.231 133.126 162.173 135.049 162.386 137.022C162.582 138.865 163.585 140.005 163.969 141.233C165.067 144.741 162.46 147.687 160.591 150.847C158.511 154.364 156.26 157.781 154.801 161.622C153.216 165.787 153.318 170.175 152.079 174.393C150.066 181.247 141.621 184.984 134.781 182.974C131.145 181.905 131.91 179.447 130.757 176.615C130.321 175.54 129.096 174.943 128.731 173.516C128.344 172.004 128.698 170.038 128.995 168.511C130.433 161.124 132.767 153.389 135.023 146.201C122.748 152.962 109.75 157.417 95.6157 157.163C88.5903 157.037 83.4721 155.529 78.3836 161.533C74.4397 166.186 74.4448 174.369 72.8352 180.155C71.0887 186.437 69.5132 194.482 65.5365 199.739C60.7386 206.081 54.1883 205.038 53.6996 196.579C53.2823 189.368 56.8686 182.534 56.2667 175.214C55.9645 171.53 54.5144 168.284 54.6031 164.554C54.6803 161.349 55.3092 158.338 55.9021 155.181C48.8818 156.033 43.4447 158.919 38.4571 163.76C33.7872 168.292 31.84 173.888 27.9835 179.072C24.4647 183.801 21.351 190.309 14.405 190.148C5.5389 189.941 4.98078 179.023 8.30548 173.188C10.0048 170.205 12.3657 167.87 14.5258 165.243C16.9177 162.335 17.2 160 17.6932 156.285C18.0681 153.452 18.171 149.709 20.7195 147.842C23.0114 146.16 25.8884 146.978 28.0086 144.749C30.0368 142.619 31.6381 139.394 33.4598 137.038C35.735 134.097 38.0899 131.058 40.1136 127.936C44.4672 121.215 50.1885 116.539 56.2185 111.281C54.0321 109.918 48.2664 111.424 45.5584 110.993C41.1091 110.284 35.3511 108.164 31.9036 105.118C24.7483 98.7907 21.3092 90.5612 20.9568 81.0506C20.6179 71.9155 22.0506 60.898 28.8375 54.1091C32.2959 50.649 36.7247 47.6205 41.0949 45.4139C44.0048 43.9457 49.9975 40.7426 53.362 42.0651C61.1302 45.1213 43.5611 57.2752 41.2448 59.2201C33.8637 65.4154 29.5655 71.3952 29.7372 81.3052C29.9031 90.9413 39.1857 95.5223 46.9494 98.7103C50.9762 100.364 55.8404 101.691 60.3386 101.57C65.4361 101.434 68.9035 98.5052 73.5465 96.7874C82.6857 93.4071 92.0622 91.1342 101.482 88.8569C110.759 86.613 120.851 87.1198 130.351 85.6547C139.282 84.2772 147.627 82.5786 156.069 79.3302C164.811 75.9659 171.553 65.9331 181.087 64.8777C187.001 64.2236 184.11 68.4104 181.555 70.5578C178.498 73.1272 175.179 75.3653 172.12 77.9423C164.327 84.5068 156.165 88.3681 146.288 90.8705C139.114 92.6874 131.38 94.3872 123.756 95.4709C114.131 96.8401 104.443 96.4124 94.9881 98.9058C89.3902 100.381 83.9538 102.261 78.6723 104.659C76.509 105.641 72.0346 107.215 71.634 108.962C71.1144 111.223 72.9233 111.178 70.7427 113.261C67.0689 116.771 62.2909 119.253 58.5805 122.894C54.4475 126.95 50.5165 130.885 47.1687 135.642C43.8479 140.361 41.1965 144.934 36.279 148.189C34.6489 149.268 31.8811 151.16 30.0285 151.656C28.3237 152.113 27.5443 151.413 26.0852 152.362C22.203 154.885 24.529 162.762 23.5046 166.662C22.194 171.657 18.8385 175.406 16.7492 180.04C19.6726 179.407 21.713 174.565 23.2159 172.282C24.9007 169.72 27.0337 167.994 29.1771 165.781C33.6843 161.127 34.8772 154.762 40.2345 150.38C49.939 142.443 65.0246 143.128 73.122 132.489C74.4332 130.765 75.6653 125.784 77.2389 124.7C80.1211 122.715 79.8768 128.648 79.5803 130.408C78.5668 136.42 74.8596 143.526 70.0128 147.321C67.8193 149.039 64.7513 149.826 62.8478 152.056C62.3816 152.241 61.9167 152.427 61.4498 152.611C61.7282 153.602 61.88 154.609 61.9025 155.633C61.9469 157.421 61.5135 159.164 61.4408 160.967C61.2601 165.505 62.2639 169.385 63.1726 173.733C63.8233 176.838 62.0729 183.312 63.4677 185.843C66.2233 176.594 69.4637 165.911 74.6847 157.691C75.9181 155.747 78.3649 154.142 79.3366 152.14C79.7977 151.627 80.2594 151.113 80.7211 150.6C79.9121 149.851 79.2073 149.015 78.6067 148.093C75.4763 141.513 82.3352 145.581 85.0721 146.14C89.4713 147.038 94.9534 145.193 99.5217 145.054C103.974 144.919 108.364 144.771 112.715 144.079C117.415 143.334 122.291 142.207 126.888 140.974C131.504 139.735 135.769 137.187 140.256 136.067C135.77 133.001 134.351 129.01 132.799 124.025C131.78 120.747 128.157 112.794 130.437 109.467C132.908 105.859 133.791 111.408 134.592 113.373C135.948 116.696 138.001 122.365 140.513 124.858C141.867 126.202 143.697 126.055 144.907 127.848C145.797 129.167 145.918 130.99 146.057 132.519C146.469 137.035 144.684 140.649 143.092 144.76C139.379 154.345 137.879 164.595 133.023 173.714C135.976 173.997 139.033 173.572 141.979 173.274Z" fill="#36392E"/>
<path fill-rule="evenodd" clip-rule="evenodd" d="M204.108 97.7591C206.478 97.2015 213.936 96.3879 211.772 92.0423C209.583 87.6471 203.755 94.755 204.108 97.7591ZM274.71 63.1547C273.318 62.7225 271.11 61.716 269.62 61.8228C267.854 61.9495 266.542 63.2293 264.75 63.3985C261.094 63.7438 258.268 62.1836 255.879 66.088C260.961 66.088 271.128 67.811 274.71 63.1547ZM178.824 154.208C183.661 154.883 186.064 133.518 186.32 130.719C184.151 130.497 178.303 134.758 177.792 136.721C177.233 138.877 179.162 142.337 179.396 144.578C179.743 147.896 179.375 150.941 178.824 154.208ZM205.777 32.2544C199.953 32.8217 193.438 34.7069 188.093 31.4678C183.759 28.8426 182.154 23.3037 178.505 20.0521C178.505 29.4299 186.936 36.819 195.516 39.7945C199.885 41.3094 206.578 39.0246 210.438 41.4937C211.557 42.2095 213.944 45.4705 214.031 46.8172C214.33 51.4085 211.058 47.2996 209.204 47.4417C206.628 47.6385 203.043 54.4287 200.896 56.4931C199.281 58.0463 197.458 59.3068 195.634 60.6413C195.033 61.0819 191.943 62.6453 191.788 63.401C191.653 64.0718 193.347 66.5363 193.704 67.1724C196.161 71.5502 199.12 74.6874 203.003 77.7757C204.916 79.2973 206.909 80.1443 208.827 81.4081C209.453 81.8223 211.997 85.2881 211.258 85.1421C212.327 81.895 215.371 78.1333 217.397 75.2623C219.473 72.3181 222.21 69.2342 225.691 68.0425C227.22 67.5184 229.752 67.0688 231.344 66.9402C232.461 66.901 233.569 66.9929 234.665 67.2155C236.261 67.9197 236.885 67.3531 236.537 65.5137C238.214 62.0318 237.226 57.6482 239.358 54.1116C241.859 49.9589 245.952 48.0778 250.64 48.546C252.747 48.7563 255.017 49.6605 257.103 49.2913C259.17 48.926 261.514 47.2578 263.537 46.5387C271.395 43.7443 281.092 40.3485 287.254 34.5267C288.189 33.6441 290.829 31.195 291.037 29.9262C290.487 28.6883 289.938 27.452 289.389 26.215C289.244 24.4015 288.362 23.9068 286.742 24.7318C284.834 24.6918 281.215 26.8814 279.305 27.5079C276.88 28.3037 274.442 29.0036 272.056 29.902C267.915 31.4611 263.884 33.0627 259.537 33.9903C255.035 34.9496 252.892 35.5344 250.523 31.2692C248.206 27.1 248.535 24.6617 243.143 25.2715C238.336 25.8137 234.308 27.6272 229.877 29.5408C226.934 30.8113 223.101 33.1512 220.108 33.6525C217.89 34.0245 215.496 33.1604 213.359 32.7149C210.66 32.1535 208.521 32.2519 205.777 32.2544ZM261.606 56.4681H264.027C262.15 55.3651 260.273 54.2615 258.397 53.1591C255.754 57.4231 249.151 55.569 245.148 58.11C241.861 60.1969 238.775 69.0908 241.931 72.3303C246.318 76.8322 248.478 66.8424 249.723 64.5413C252.257 59.8574 256.075 56.3497 261.606 56.4681ZM184.881 66.0154C182.917 62.3083 184.205 58.7647 187.12 56.7973C191.325 53.9605 195.558 50.8522 199.682 47.7092C192.673 46.6095 187.65 44.2916 181.935 40.0164C175.342 35.0831 173.466 30.5243 173.65 22.1917C173.743 18.0092 173.158 6.12132 179.909 9.5723C185.486 12.4235 186.255 20.3965 192.255 23.0993C198.182 25.7687 205.164 23 211.397 25.0788C213.171 25.6711 217.917 29.837 219.359 29.8178C221.274 29.7911 226.084 25.5585 227.895 24.5533C232.438 22.0324 238.315 19.574 243.376 18.8475C246.555 18.3912 247.589 18.0642 249.894 20.4074C252.473 23.0309 253.282 26.2742 254.202 29.6826C263.989 25.6527 273.875 21.8914 283.938 18.6056C287.133 17.5621 289.328 16.2274 292.055 14.5456C295.958 12.1382 298.13 13.2527 298.84 18.2302C300.09 26.9991 294.732 32.6073 290.076 39.1706C287.508 42.79 285.755 45.347 281.58 47.1954C277.235 49.119 272.004 48.499 267.285 49.9448C268.495 51.4195 269.135 54.8538 270.201 55.8905C271.07 56.733 275.22 56.5935 276.62 57.3292C280.815 59.5345 280.316 63.2158 277.717 66.8559C274.784 70.9617 270.449 71.7187 265.711 72.0762C263.591 72.2357 261.7 72.2647 259.577 72.1148C258.205 72.0177 253.423 70.534 252.388 70.9739C251.162 71.4936 250.877 74.1986 250.319 75.434C249.432 77.3975 248.445 79.3848 246.358 80.2923C244.552 81.0762 242.515 80.8647 240.873 79.7874C238.671 78.3455 239.275 76.6425 237.889 74.7909C237.758 72.8403 236.927 72.4711 235.394 73.6802C234.224 74.0899 233.056 74.5041 231.888 74.9215C229.475 75.8013 227.22 76.6496 225.096 78.1268C221.026 80.9553 218.562 85.7274 214.026 87.7166C216.985 92.7748 215.137 99.657 210.157 102.284C209.035 102.875 207.66 103.603 206.467 103.986C205.578 104.272 203.253 104.041 202.652 104.536C201.782 105.257 201.304 112.071 200.695 113.589C198.602 118.809 194.155 121.407 191.523 126.142C188.956 130.763 189.508 137.934 188.761 143.139C187.835 149.585 187.248 156.352 184.487 162.333C182.641 166.336 177.101 171.081 172.21 170.292C165.018 169.132 168.145 159.943 170.351 155.983C173.753 149.875 173.749 145.254 172.886 138.498C170.046 138.92 163.011 141.698 163.35 136.287C163.581 132.596 171.548 129.213 174.34 127.359C180.652 123.17 187.111 118.295 192.44 112.927C194.644 110.708 197.797 106.611 198.918 103.576C199.735 101.361 199.56 99.2074 199.737 96.8915C199.9 94.7602 201.77 91.8333 201.677 89.9701C201.54 87.2072 194.266 82.7928 192.186 79.8678C189.223 75.7003 186.732 70.772 184.881 66.0154Z" fill="#36392E"/>
<path fill-rule="evenodd" clip-rule="evenodd" d="M330.575 75.2926C332.805 75.0013 341.372 72.6268 342.844 74.8495C345.529 78.9038 337.637 79.6588 335.653 80.0267C326.884 81.6481 318.305 83.8051 309.802 86.2214C292.887 91.0262 275.64 97.0569 259.885 104.885C257.418 106.111 250.168 111.1 247.699 108.579C244.508 105.324 252.248 101.713 254.021 100.698C261.879 96.2021 270.183 92.1691 278.617 88.8582C295.23 82.3375 312.782 77.2548 330.575 75.2926Z" fill="#36392E"/>
<path fill-rule="evenodd" clip-rule="evenodd" d="M119.147 289.318C131.73 287.44 145.402 290.21 157.613 294.031C161.526 295.255 165.605 296.677 169.186 298.672C171.116 299.745 175.703 301.657 176.795 303.667C178.616 307.017 176.578 308.444 173.647 307.894C170.86 307.37 167.435 305.767 164.526 305.035C151.206 301.682 137.966 299.167 124.475 297.824C121.248 297.503 118.904 297.878 115.792 298.444C113.467 298.868 107.328 301.396 105.58 299.913C99.2625 294.559 116.14 289.65 119.147 289.318Z" fill="#36392E"/>
<path fill-rule="evenodd" clip-rule="evenodd" d="M314.931 315.083C315.783 319.857 313.356 320.303 309.3 322.534C305.157 324.813 301.019 326.686 296.644 328.525C291.929 330.507 286.989 332.54 282.077 333.986C277.917 335.212 271.502 337.96 267.182 337.553C265.439 337.388 264.312 337.616 264.299 335.455C264.287 333.112 266.49 333.253 268.307 332.735C273.872 331.151 279.258 328.774 284.73 326.887C295.033 323.338 305.355 320.34 314.931 315.083Z" fill="#36392E"/>
<path fill-rule="evenodd" clip-rule="evenodd" d="M2.79688 81.6126C-0.430135 76.2849 -0.365246 69.1828 0.527711 63.1631C0.8286 61.134 5.72385 46.1329 8.68155 49.2515C10.4358 51.1011 4.46435 62.882 3.83903 65.5742C3.08479 68.8201 2.69715 72.0306 3.1943 75.3485C3.32973 76.2451 5.33859 81.9374 2.79688 81.6126Z" fill="#36392E"/>
<path fill-rule="evenodd" clip-rule="evenodd" d="M171.913 111.853C169.55 108.621 172.714 101.389 173.671 97.9528C174.261 95.8356 176.063 87.882 178.921 89.5799C181.695 91.2276 178.589 98.6821 178.034 100.741C177.21 103.794 176.012 111.776 171.913 111.853Z" fill="#36392E"/>
<path fill-rule="evenodd" clip-rule="evenodd" d="M434.067 284.098C434.501 283.064 434.936 282.031 435.37 280.997C436.474 281.836 438.015 282.248 436.891 283.52C436.2 284.304 435.038 284.302 434.067 284.098Z" fill="#36392E"/>
<path fill-rule="evenodd" clip-rule="evenodd" d="M394.197 82.4475C392.262 82.744 390.97 82.7601 389.053 82.715C390.768 82.6256 392.483 82.5369 394.197 82.4475Z" fill="#36392E"/>
<path fill-rule="evenodd" clip-rule="evenodd" d="M456.903 232.762C456.898 231.476 456.893 230.189 456.889 228.904C456.893 230.191 456.898 231.477 456.903 232.762Z" fill="#36392E"/>
<path fill-rule="evenodd" clip-rule="evenodd" d="M145.66 136.293C145.655 135.005 145.652 133.719 145.648 132.434C145.653 133.721 145.656 135.007 145.66 136.293Z" fill="#36392E"/>
<path fill-rule="evenodd" clip-rule="evenodd" d="M205.78 23.5861C204.494 23.5778 203.207 23.5707 201.922 23.5623C203.214 23.0395 204.497 23.2909 205.78 23.5861Z" fill="#36392E"/>
<path fill-rule="evenodd" clip-rule="evenodd" d="M214.486 419.914C214.471 420.772 214.454 421.631 214.436 422.487C214.452 421.627 214.469 420.77 214.486 419.914Z" fill="#36392E"/>
<path fill-rule="evenodd" clip-rule="evenodd" d="M52.0881 111.521C52.7337 111.528 53.3781 111.535 54.0173 111.543C53.3704 111.536 52.7292 111.529 52.0881 111.521Z" fill="#36392E"/>
<path fill-rule="evenodd" clip-rule="evenodd" d="M415.113 338.879C415.102 338.02 415.092 337.162 415.081 336.307C415.091 337.167 415.101 338.023 415.113 338.879Z" fill="#36392E"/>
<path fill-rule="evenodd" clip-rule="evenodd" d="M447.833 170.378C447.873 169.52 447.914 168.661 447.954 167.806C447.913 168.666 447.873 169.522 447.833 170.378Z" fill="#36392E"/>
<path fill-rule="evenodd" clip-rule="evenodd" d="M389.445 40.4657C389.398 41.324 389.352 42.183 389.304 43.0382C389.351 42.1792 389.398 41.3232 389.445 40.4657Z" fill="#36392E"/>
<path fill-rule="evenodd" clip-rule="evenodd" d="M554.63 322.801C554.638 321.942 554.646 321.084 554.655 320.229C554.646 321.088 554.638 321.944 554.63 322.801Z" fill="#36392E"/>
<path fill-rule="evenodd" clip-rule="evenodd" d="M298.739 26.3168C298.715 25.4578 298.692 24.5987 298.667 23.7443C298.69 24.6043 298.715 25.4605 298.739 26.3168Z" fill="#36392E"/>
<path fill-rule="evenodd" clip-rule="evenodd" d="M29.8479 81.6262C29.8846 80.7677 29.9206 79.9091 29.9572 79.0537C29.9199 79.9136 29.8846 80.7702 29.8479 81.6262Z" fill="#36392E"/>
<path fill-rule="evenodd" clip-rule="evenodd" d="M261.727 72.3053C262.372 72.3021 263.017 72.2995 263.656 72.2963C263.008 72.2995 262.368 72.3021 261.727 72.3053Z" fill="#36392E"/>
<path fill-rule="evenodd" clip-rule="evenodd" d="M478.181 28.8893C478.138 28.0303 478.095 27.1731 478.053 26.3168C478.096 27.1757 478.139 28.0321 478.181 28.8893Z" fill="#36392E"/>
<path fill-rule="evenodd" clip-rule="evenodd" d="M54.3376 162.018C54.3388 162.877 54.3401 163.736 54.3401 164.59C54.3388 163.73 54.3382 162.874 54.3376 162.018Z" fill="#36392E"/>
<path fill-rule="evenodd" clip-rule="evenodd" d="M558.579 311.225C558.526 310.367 558.474 309.509 558.422 308.652C558.474 309.511 558.527 310.367 558.579 311.225Z" fill="#36392E"/>
<path fill-rule="evenodd" clip-rule="evenodd" d="M238.576 304.503C239.222 304.482 239.867 304.462 240.505 304.441C239.858 304.462 239.217 304.483 238.576 304.503Z" fill="#36392E"/>
<path fill-rule="evenodd" clip-rule="evenodd" d="M447.969 187.743C447.919 186.884 447.868 186.027 447.818 185.171C447.868 186.029 447.919 186.886 447.969 187.743Z" fill="#36392E"/>
<path fill-rule="evenodd" clip-rule="evenodd" d="M139.544 289.028C138.687 289.034 137.829 289.04 136.972 289.045C137.83 289.04 138.687 289.034 139.544 289.028Z" fill="#36392E"/>
<path fill-rule="evenodd" clip-rule="evenodd" d="M118.967 288.916C118.109 288.996 117.252 289.077 116.394 289.157C117.252 289.076 118.109 288.996 118.967 288.916Z" fill="#36392E"/>
<path fill-rule="evenodd" clip-rule="evenodd" d="M447.278 181.955C447.26 181.311 447.24 180.667 447.222 180.026C447.241 180.669 447.26 181.312 447.278 181.955Z" fill="#36392E"/>
<path fill-rule="evenodd" clip-rule="evenodd" d="M476.242 56.544C476.206 55.8996 476.17 55.2565 476.134 54.6146C476.171 55.259 476.206 55.9015 476.242 56.544Z" fill="#36392E"/>
<path fill-rule="evenodd" clip-rule="evenodd" d="M279.403 62.3322C279.408 61.6885 279.413 61.046 279.419 60.4028C279.414 61.0473 279.409 61.6891 279.403 62.3322Z" fill="#36392E"/>
<path fill-rule="evenodd" clip-rule="evenodd" d="M189.927 239.336C190.281 239.356 190.635 239.376 190.99 239.397C190.197 240.081 189.269 239.378 189.927 239.336Z" fill="#36392E"/>
<path fill-rule="evenodd" clip-rule="evenodd" d="M228.93 303.84C229.361 303.832 229.791 303.824 230.216 303.817C229.784 303.825 229.357 303.832 228.93 303.84Z" fill="#36392E"/>
<path fill-rule="evenodd" clip-rule="evenodd" d="M557.93 306.079C557.882 305.436 557.833 304.793 557.784 304.15C557.833 304.795 557.882 305.436 557.93 306.079Z" fill="#36392E"/>
<path fill-rule="evenodd" clip-rule="evenodd" d="M56.3493 179.382C56.2947 180.026 56.24 180.67 56.186 181.312C56.2407 180.667 56.2953 180.024 56.3493 179.382Z" fill="#36392E"/>
<path fill-rule="evenodd" clip-rule="evenodd" d="M351.112 96.5701C350.343 97.1431 349.414 96.8228 348.54 96.8029C349.398 96.7251 350.256 96.6479 351.112 96.5701Z" fill="#36392E"/>
<path fill-rule="evenodd" clip-rule="evenodd" d="M553.984 331.162C553.994 330.517 554.004 329.873 554.014 329.232C554.004 329.877 553.994 330.52 553.984 331.162Z" fill="#36392E"/>
<path fill-rule="evenodd" clip-rule="evenodd" d="M408.591 354.958C408.641 354.313 408.691 353.67 408.742 353.028C408.691 353.674 408.641 354.316 408.591 354.958Z" fill="#36392E"/>
<path fill-rule="evenodd" clip-rule="evenodd" d="M45.0145 110.851C45.4454 110.877 45.8756 110.9 46.3007 110.926C45.8692 110.902 45.4415 110.877 45.0145 110.851Z" fill="#36392E"/>
<path fill-rule="evenodd" clip-rule="evenodd" d="M330.534 75.4122C329.676 75.4817 328.82 75.5511 327.962 75.6206C328.82 75.5511 329.676 75.4817 330.534 75.4122Z" fill="#36392E"/>
<path fill-rule="evenodd" clip-rule="evenodd" d="M268.565 416.698C268.507 417.342 268.449 417.986 268.392 418.628C268.449 417.982 268.507 417.34 268.565 416.698Z" fill="#36392E"/>
<path fill-rule="evenodd" clip-rule="evenodd" d="M142.117 173.176C141.26 173.24 140.402 173.304 139.544 173.369C140.402 173.304 141.26 173.24 142.117 173.176Z" fill="#36392E"/>
<path fill-rule="evenodd" clip-rule="evenodd" d="M250.151 391.397C251.866 391.329 253.58 391.261 255.296 391.193C253.582 391.261 251.866 391.329 250.151 391.397Z" fill="#36392E"/>
<path fill-rule="evenodd" clip-rule="evenodd" d="M406.673 331.162C406.716 330.089 406.759 329.016 406.801 327.946C406.758 329.019 406.716 330.091 406.673 331.162Z" fill="#36392E"/>
<path fill-rule="evenodd" clip-rule="evenodd" d="M441.141 40.904C442.212 40.8262 443.283 40.7484 444.356 40.6705C443.285 40.7484 442.212 40.8262 441.141 40.904Z" fill="#36392E"/>
<path fill-rule="evenodd" clip-rule="evenodd" d="M135.043 259.349C136.115 259.418 137.187 259.487 138.258 259.555C137.187 259.486 136.115 259.418 135.043 259.349Z" fill="#36392E"/>
<path fill-rule="evenodd" clip-rule="evenodd" d="M211.278 234.692C210.825 233.727 210.85 232.87 211.351 232.119C211.62 232.995 211.596 233.852 211.278 234.692Z" fill="#36392E"/>
<path fill-rule="evenodd" clip-rule="evenodd" d="M519.258 295.789C519.268 296.649 519.277 297.508 519.288 298.362C519.279 297.501 519.269 296.645 519.258 295.789Z" fill="#36392E"/>
<path fill-rule="evenodd" clip-rule="evenodd" d="M261.42 380.04C261.41 379.181 261.4 378.321 261.39 377.467C261.401 378.329 261.41 379.184 261.42 380.04Z" fill="#36392E"/>
<path fill-rule="evenodd" clip-rule="evenodd" d="M230.86 294.073C231.717 294.146 232.575 294.218 233.432 294.29C232.574 294.218 231.717 294.145 230.86 294.073Z" fill="#36392E"/>
<path fill-rule="evenodd" clip-rule="evenodd" d="M214.825 237.855C214.691 236.821 214.878 236.438 215.384 236.702C215.518 237.673 215.331 238.058 214.825 237.855Z" fill="#36392E"/>
<path fill-rule="evenodd" clip-rule="evenodd" d="M246.627 194.174C246.619 194.818 246.611 195.462 246.602 196.104C246.611 195.459 246.619 194.817 246.627 194.174Z" fill="#36392E"/>
<path fill-rule="evenodd" clip-rule="evenodd" d="M541.788 316.37C541.783 315.726 541.778 315.082 541.773 314.44C541.778 315.084 541.783 315.727 541.788 316.37Z" fill="#36392E"/>
<path fill-rule="evenodd" clip-rule="evenodd" d="M449.501 40.7895C450.358 40.7883 451.216 40.787 452.073 40.785C451.215 40.7863 450.358 40.7883 449.501 40.7895Z" fill="#36392E"/>
<path fill-rule="evenodd" clip-rule="evenodd" d="M428.28 119.353L430.852 119.146L428.28 119.353Z" fill="#36392E"/>
<path fill-rule="evenodd" clip-rule="evenodd" d="M387.767 227.306C387.336 227.299 386.906 227.292 386.481 227.286C386.913 227.293 387.34 227.3 387.767 227.306Z" fill="#36392E"/>
<path fill-rule="evenodd" clip-rule="evenodd" d="M402.819 349.813C402.859 349.169 402.898 348.525 402.937 347.883C402.898 348.528 402.859 349.171 402.819 349.813Z" fill="#36392E"/>
<path fill-rule="evenodd" clip-rule="evenodd" d="M303.526 359.757C303.095 359.773 302.665 359.789 302.24 359.806C302.672 359.789 303.099 359.772 303.526 359.757Z" fill="#36392E"/>
<path fill-rule="evenodd" clip-rule="evenodd" d="M246.608 196.747C246.612 197.391 246.617 198.036 246.622 198.676C246.618 198.031 246.613 197.389 246.608 196.747Z" fill="#36392E"/>
<path fill-rule="evenodd" clip-rule="evenodd" d="M207.709 31.7827C207.064 31.7834 206.419 31.784 205.78 31.784C206.428 31.784 207.069 31.7834 207.709 31.7827Z" fill="#36392E"/>
<path fill-rule="evenodd" clip-rule="evenodd" d="M210.767 82.9125C211.676 83.5035 211.811 84.1473 211.171 84.8419C210.139 84.7608 210.006 84.1183 210.767 82.9125Z" fill="#36392E"/>
<path fill-rule="evenodd" clip-rule="evenodd" d="M259.154 56.2031C260.012 56.216 260.87 56.2288 261.727 56.2417C260.869 56.2288 260.011 56.216 259.154 56.2031Z" fill="#36392E"/>
<path fill-rule="evenodd" clip-rule="evenodd" d="M240.83 66.8341C240.828 67.4779 240.826 68.1217 240.824 68.7635C240.826 68.1178 240.828 67.4766 240.83 66.8341Z" fill="#36392E"/>
<path fill-rule="evenodd" clip-rule="evenodd" d="M225.072 67.912L227.644 67.6857L225.072 67.912Z" fill="#36392E"/>
<path fill-rule="evenodd" clip-rule="evenodd" d="M341.362 186.074C335.061 186.767 327.049 186.165 321.357 183.098C317.411 180.971 315.582 174.001 321.312 173.021C324.53 172.471 328.391 175.305 331.235 176.4C334.621 177.702 338.154 178.315 341.64 179.228C344.006 179.848 347.443 181.412 345.283 184.795C344.894 185.405 341.406 187.247 341.362 186.074Z" fill="#36392E"/>
<path fill-rule="evenodd" clip-rule="evenodd" d="M430.209 217.075C429.592 221.12 429.499 225.589 427.558 229.286C424.76 234.617 424.209 228.906 424.65 225.978C425.3 221.66 425.652 217.239 425.328 212.875C425.063 209.299 422.657 205.111 424.418 201.892C429.226 205.007 429.324 211.971 430.209 217.075Z" fill="#36392E"/>
<path fill-rule="evenodd" clip-rule="evenodd" d="M430.428 91.2578C427.769 90.6487 423.418 88.8904 427.167 86.4098C428.69 85.4014 431.691 85.885 433.391 84.9409C434.422 84.3692 435.006 83.1446 436.038 82.7009C439.46 81.2287 439.811 83.7421 438.523 86.9391C437.161 90.3201 433.889 91.4218 430.428 91.2578Z" fill="#36392E"/>
<path fill-rule="evenodd" clip-rule="evenodd" d="M428.889 69.972C433.26 66.7048 432.666 70.7868 430.356 73.6623C429.497 74.6315 428.636 75.6 427.775 76.5673L428.53 77.4921C428.4 78.8073 429.63 79.7804 428.123 80.6415C425.636 82.0641 423.767 78.7018 423.779 76.84C423.796 73.751 426.839 71.8139 428.889 69.972Z" fill="#36392E"/>
<path fill-rule="evenodd" clip-rule="evenodd" d="M428.327 70.2351C424.246 74.2353 424.399 66.1814 426.568 64.4449C430.73 61.1122 428.049 68.844 428.327 70.2351Z" fill="#36392E"/>
<path fill-rule="evenodd" clip-rule="evenodd" d="M436.127 73.2609C435.836 71.8421 435.799 65.1221 438.624 65.569C441.697 66.0552 438.313 73.4725 436.127 73.2609Z" fill="#36392E"/>
<path fill-rule="evenodd" clip-rule="evenodd" d="M430.852 91.5677C431.283 91.5858 431.713 91.6044 432.138 91.6218C431.706 91.6044 431.279 91.5858 430.852 91.5677Z" fill="#36392E"/>
<path fill-rule="evenodd" clip-rule="evenodd" d="M234.935 41.1088C231.455 35.1797 239.398 25.0559 243.374 33.2498C243.914 34.3595 245.134 37.3506 243.666 38.2707C242.088 39.2583 242.426 37.823 241.128 37.6068C239.581 37.3489 240.086 36.627 238.289 37.4112C237.012 37.9682 235.818 40.0861 234.935 41.1088Z" fill="#36392E"/>
</svg>
